<ttFont>
          <CharString index="0">
            rmoveto
            -7 -59 -6 -60 1 -52 rrcurveto
            -276.00999450683594 5 151 -162.97999572753906 292 hhcurveto
            344 194.99000549316406 171.99000549316406 472 61 hvcurveto
            37 callgsubr
            rlineto
            -146.99000549316406 hlineto
            -112 -890 rlineto
            -389.02000427246094 -50 -139 -145 -245 hhcurveto
            -209.99000549316406 -101 121 201.02000427246094 -4 hvcurveto
            -1 57 -29 callgsubr
            -42 callgsubr
            9.020004272460938 72.00999450683594 115 911.0099945068359 rcurveline
            -150 hlineto
            -119 -937 rlineto
            endchar
          </CharString>
          <CharString index="1">
            -153.99000549316406 -100 -175 -150.02000427246094 -129 hhcurveto
            -100 -57 31 134 68 11 90.00999450683594 13 99 hvcurveto
            17 133 -56 callgsubr
            308 23 166 rrcurveto
            -149 hlineto
            -24 -163 -43.99000549316406 -310 -17 -133 rrcurveto
            -13 -105 -13 -103.00999450683594 -59.99000549316406 vvcurveto
            -209 87 -76 168 168 166 130.99000549316406 150 106.99000549316406 vhcurveto
            -29 -261.97999572753906 rlineto
            138.02000427246094 hlineto
            152 1140 rlineto
            -149 hlineto
            return
          </CharString>
          <CharString index="2">
            rmoveto
            -333 -233.99000549316406 -349 -363 6 hvcurveto
            -291 5 129 -168.97999572753906 249 hhcurveto
            333 227 351.97999572753906 360 -6 hvcurveto
            291 -5.0200042724609375 -121 169 -250 hhcurveto
            -153.99000549316406 -1059 rmoveto
            -168 -82 127 223 -3 hvcurveto
            268 -5 135 328.99000549316406 252.99000549316406 hhcurveto
            172 69 -132 -219 1 callgsubr
            -268 -60 callgsubr
            -128 -327.99000549316406 -250 hhcurveto
            endchar
          </CharString>
          <CharString index="3">
            rmoveto
            -146 hlineto
            182 callgsubr
            -20.990005493164062 -4 callgsubr
            -63 callgsubr
            -72 -30 -244 -77.99000549316406 -169 -142 -188.99000549316406 95 callsubr
            -174 rcurveline
            -23.020004272460938 238 -86 786 rlineto
            -163 hlineto
            42 -286 -43.99000549316406 -197 -101 -190.02000427246094 -125.00999450683594 -172.99000549316406 rlinecurve
            -134.99000549316406 -177 -21.020004272460938 237.02000427246094 62 callgsubr
            786 rlineto
            -166 hlineto
            117 -786 57 -368 135 -39 callgsubr
            150 179.97000122070312 102.00999450683594 116 88 165 63 150 rlinecurve
            78 callsubr
            -252.99000549316406 57.02000427246094 -368 135.99000549316406 -39 callgsubr
            153 174.97999572753906 195.02000427246094 220 -87 callsubr
            337 19 291 154 callgsubr
            55 0 28 -48 callsubr
            38 rrcurveto
            endchar
          </CharString>
          <CharString index="4">
            -438 -202 -426 -314 -257 101 -174.97999572753906 216.99000549316406 167.02000427246094 140 117.97999572753906 106 73.99000549316406 hvcurveto
            -48 -299.97999572753906 rlineto
            -192 -34 -113.00999450683594 -108.00999450683594 -183.99000549316406 hhcurveto
            -100 54 callgsubr
            23 25 -56 hvcurveto
            -16 callgsubr
            -126 rlineto
            -17 40 128 -18 88 hhcurveto
            197 266 100 315.97999572753906 45 hvcurveto
            176 1245 -116 -36 rlineto
            return
          </CharString>
          <CharString index="5">
            303.97999572753906 38 callsubr
            rmoveto
            -4 callgsubr
            -1020.9900054931641 rlineto
            147.99000549316406 hlineto
            138.02000427246094 38 callsubr
            rlineto
            250 hlineto
            -47 callgsubr
            119.00999450683594 rlineto
            -83 callgsubr
            38 -15.009994506835938 24.990005493164062 -17 169 callsubr
            -74 callgsubr
            173 callsubr
            -123.99000549316406 -146 -1 -22.020004272460938 153 callsubr
            return
          </CharString>
          <CharString index="6">
            rmoveto
            231 -42 callgsubr
            144.02000427246094 202.02000427246094 -5 251.99000549316406 rrcurveto
            230 -45 callsubr
            -165.99000549316406 122 -301 68 callgsubr
            -82.99000549316406 -16 -112 hhcurveto
            -76 hlineto
            -192 201 callsubr
            82 657.9799957275391 rlineto
            -18 callsubr
            -76 callgsubr
            170 -1 19 hhcurveto
            91 -2 87 -208 66 -188 -45 callgsubr
            -159 31 -64.97999572753906 21 -33.02000427246094 172 -1.9799957275390625 rcurveline
            -32 42.97999572753906 -34 83 -92 212 -31 81.97999572753906 -88 198 -67.99000549316406 61 rrcurveto
            -163 99 rmoveto
            -46 -165.99000549316406 -1 3 -56.02000427246094 hvcurveto
            80.02000427246094 634.9900054931641 rlineto
            6 51 127 -39 callgsubr
            51 hhcurveto
            214 112 -81 -162.02000427246094 3 hvcurveto
            -238.97999572753906 5 -141 -171 -234 hhcurveto
            return
          </CharString>
          <CharString index="7">
            61 callgsubr
            hlineto
            -289.02000427246094 1530 rlineto
            -168 hlineto
            -744.9799957275391 -66 callsubr
            160.97000122070312 hlineto
            201 430.97999572753906 rlineto
            -11 callsubr
            hlineto
            76 -430.97999572753906 rlineto
            -635.9900054931641 546 rmoveto
            341 729.9900054931641 55 119.00999450683594 15 -115 129 -734 rlineto
            -540 hlineto
            endchar
          </CharString>
          <CharString index="8">
            rmoveto
            -193 -1530 246 callgsubr
            -737 -13 -61 callgsubr
            197 callsubr
            -473.99000549316406 -6 -76 callgsubr
            579.0099945068359 614.0099945068359 -7 -7 callsubr
            endchar
          </CharString>
          <CharString index="9">
            rmoveto
            19.009994506835938 -63 -84.00999450683594 17 -66.99000549316406 178 callsubr
            -257 -23 callsubr
            -173.97000122070312 217 165.99000549316406 134 115.97000122070312 105 -32 callgsubr
            44 callgsubr
            vlineto
            -19 -201.99000549316406 rlineto
            131 hlineto
            157 -21 callsubr
            -113.00999450683594 -36 rlineto
            -503.99000549316406 -1020 rmoveto
            -123 -66 111 222 272 153 341.02000427246094 302 65 69 -15.020004272460938 -23 51 hvcurveto
            -64 -450.99000549316406 -56 callsubr
            -185 rlineto
            -104.02000427246094 -59 -140 -168 -168 hhcurveto
            endchar
          </CharString>
          <CharString index="10">
            rmoveto
            -443 -1105.020004272461 -99 -258.99000549316406 -12 callsubr
            268 -109 1096 rlineto
            -144 hlineto
            24 -226.02000427246094 -353.02000427246094 -879 -86 -258.99000549316406 -40 268 -146 1096 176 callgsubr
            231 -1539.990005493164 rlineto
            155 hlineto
            339.99000549316406 859.9700012207031 84.00999450683594 236 18 -236 62 callsubr
            -859.9700012207031 rlineto
            154 hlineto
            647 1539.990005493164 rlineto
            -152 hlineto
            endchar
          </CharString>
          <CharString index="11">
            rmoveto
            -10 -81 -2 -37 -16 vvcurveto
            -114.02000427246094 64 -57.970001220703125 111 -84 callsubr
            144.02000427246094 87.97999572753906 48 40 vhcurveto
            64 callgsubr
            rlineto
            70 callsubr
            -38.99000549316406 -116 -70 -64 hhcurveto
            -65 -28 callgsubr
            57 59 94 callgsubr
            6.9799957275390625 44 9.009994506835938 -79 callgsubr
            hvcurveto
            87 659 rlineto
            290 hlineto
            18 119.00999450683594 rlineto
            -291 hlineto
            36 279 rlineto
            170 callsubr
            hlineto
            -61 callsubr
            -279 -127 -1 -31 -118.00999450683594 197 callgsubr
            -93 -730.9900054931641 rlineto
            return
          </CharString>
          <CharString index="12">
            30 callsubr
            -1143.990005493164 rlineto
            147.99000549316406 hlineto
            155 -6 callsubr
            -149 hlineto
            return
          </CharString>
          <CharString index="13">
            14.009994506835938 -56.02000427246094 -65 11 -61 callsubr
            -82 callgsubr
            -20 -207.99000549316406 rlineto
            132 hlineto
            return
          </CharString>
          <CharString index="14">
            rmoveto
            371 -5 -164 253 -407 -91 callgsubr
            -739.9900054931641 -823.0099945068359 -96 callgsubr
            endchar
          </CharString>
          <CharString index="15">
            -3 callgsubr
            -72 callgsubr
            120 callsubr
            hvcurveto
            -30 -384 -95 callsubr
            endchar
          </CharString>
          <CharString index="16">
            rmoveto
            -192.99000549316406 201 callsubr
            192.99000549316406 1530 rlineto
            -151 hlineto
            return
          </CharString>
          <CharString index="17">
            rmoveto
            158 232 -70 -35 callgsubr
            -144 -211.99000549316406 rlineto
            64 -73.99000549316406 -95.00999450683594 78 callsubr
            -116 hhcurveto
            -404 -307 -402.99000549316406 -531 9.990005493164062 hvcurveto
            158 callgsubr
            -172 41 -152 68 callsubr
            -112 -178 -261 rcurveline
            70 -38.99000549316406 160 235.99000549316406 rlineto
            -82 80 106.99000549316406 -47.97999572753906 133.02000427246094 243 callgsubr
            411.9700012207031 521.0099945068359 -9.009994506835938 44 callgsubr
            187 -48 169 -95 116 rrcurveto
            -365 39 rmoveto
            95 75 -31 -59.99000549316406 57 hvcurveto
            -688 -1033.020004272461 -37 86 -56 callsubr
            113 -2 141 rlinecurve
            418 -6 220 366 306.02000427246094 hhcurveto
            -160 -1328 rmoveto
            -110 -86 42 84.00999450683594 -60.99000549316406 hvcurveto
            692.9900054931641 1041 50 -17 callgsubr
            25 -126 -87 callgsubr
            -162 rlinecurve
            -429.02000427246094 29 callgsubr
            -360 -307.02000427246094 hhcurveto
            endchar
          </CharString>
          <CharString index="18">
            -15.990005493164062 return
          </CharString>
          <CharString index="19">
            rmoveto
            -122 -68.00999450683594 111 223 256 152 357 311.00999450683594 64 68 -14 -22 52 hvcurveto
            -88.99000549316406 -648.0099945068359 rlineto
            -104 -64 -141 -159 -163 hhcurveto
            endchar
          </CharString>
          <CharString index="20">
            153.99000549316406 return
          </CharString>
          <CharString index="21">
            -17 -116.02000427246094 -42 -266 -17 -127 rrcurveto
            149 hlineto
            18 125.00999450683594 44 callsubr
            267.97999572753906 16.020004272460938 117 rrcurveto
            return
          </CharString>
          <CharString index="22">
            -89 callsubr
            -84 callsubr
            946.9799957275391 112 return
          </CharString>
          <CharString index="23">
            112.99000549316406 return
          </CharString>
          <CharString index="24">
            -9 callsubr
            -2 -56 callsubr
            61 -22 callgsubr
            rlineto
            71 20.009994506835938 103 43 callgsubr
            -43 93 return
          </CharString>
          <CharString index="25">
            113.99000549316406 return
          </CharString>
          <CharString index="26">
            -65 callsubr
            57 callsubr
            850.9799957275391 204 callsubr
            66 callsubr
            59 49 callsubr
            249 callgsubr
            108 callsubr
            rlineto
            151 -1863.990005493164 rmoveto
            -100 callsubr
          </CharString>
          <CharString index="27">
            -49.99000549316406 return
          </CharString>
          <CharString index="28">
            hhcurveto
            439.00999450683594 202 425.97999572753906 313 258.00999450683594 39 callgsubr
            175 -217 hvcurveto
            -299.00999450683594 -1062.009994506836 rmoveto
            -63 -69 13 22 -51 hvcurveto
            88 656.0200042724609 rlineto
            -23 callsubr
            63 97 callsubr
            154 163 hhcurveto
            122 68.00999450683594 -110 -224 -257 -151 -355 -312.02000427246094 hvcurveto
            endchar
          </CharString>
          <CharString index="29">
            -16 callsubr
            584.0099945068359 hlineto
            -168.02000427246094 -183 -620.9700012207031 -791.9900054931641 45.97999572753906 -46 rlineto
            776 hlineto
            11 118.99000549316406 rlineto
            -642.0099945068359 hlineto
            142 152 return
          </CharString>
          <CharString index="30">
            -38 callsubr
            156.99000549316406 874.0099945068359 156.99000549316406 return
          </CharString>
          <CharString index="31">
            -37 callsubr
            175 callsubr
            hlineto
            16 -59 callsubr
            -593 -4 177 1404 176 callgsubr
            return
          </CharString>
          <CharString index="32">
            1020.9799957275391 119 422 116 hstem
            42 callgsubr
            -71 callsubr
            return
          </CharString>
          <CharString index="33">
            -79 -89 callsubr
            198 callsubr
            return
          </CharString>
          <CharString index="34">
            rmoveto
            -179 -1419 rlineto
            150 hlineto
            179 1419 443 -63 callgsubr
            17 -50 callsubr
            rlineto
            -1043.990005493164 hlineto
            -17 -120.00999450683594 450.99000549316406 9.009994506835938 rlineto
            return
          </CharString>
          <CharString index="35">
            -66.99000549316406 return
          </CharString>
          <CharString index="36">
            vstem
            -102 callsubr
            return
          </CharString>
          <CharString index="37">
            -37 callsubr
            150 hlineto
            69 540 rlineto
            -45 callsubr
            30 89 -10 93 hhcurveto
            363.99000549316406 257 238 393.00999450683594 -7 hvcurveto
            264.99000549316406 -4 -164 124 -289 -108.00999450683594 -88.99000549316406 -16 -110.02000427246094 hhcurveto
            -87.99000549316406 hlineto
            243 -885 rmoveto
            -63 -1 -98.02000427246094 10 -41 -40 callgsubr
            94 751 rcurveline
            -47 callgsubr
            70 103.02000427246094 11 64 hhcurveto
            221.99000549316406 61 callsubr
            -100 -190 -2 hvcurveto
            -4 -319 -154 -177 -298.99000549316406 -47 callsubr
            rrcurveto
            endchar
          </CharString>
          <CharString index="38">
            218 97 callgsubr
            -76 callgsubr
            21 callsubr
            -4 callgsubr
            hlineto
            -343 -376.00999450683594 return
          </CharString>
          <CharString index="39">
            rlineto
            60 callsubr
            hlineto
            -211 251 callgsubr
            rlineto
            147.99000549316406 hlineto
            98.02000427246094 721 rlineto
            151 108 127 callgsubr
            146 131 hhcurveto
            104 35 -47 -109.02000427246094 -76.99000549316406 -12 callsubr
            -132.02000427246094 -20.990005493164062 -140.97999572753906 hvcurveto
            hintmask 11000000
            -17 -116.02000427246094 -43 -268.97999572753906 -17 -127 rrcurveto
            149 hlineto
            18.990005493164062 122 callgsubr
            43 271 16 117 rrcurveto
            hintmask 10100000
            22 147 19 139 1 71 rrcurveto
            192 1 -81 callgsubr
            94 -163.97999572753906 hhcurveto
            endchar
          </CharString>
          <CharString index="40">
            202.99000549316406 return
          </CharString>
          <CharString index="41">
            -1530 rlineto
            return
          </CharString>
          <CharString index="42">
            155 430.97999572753906 115.00999450683594 849.0000152587891 135 return
          </CharString>
          <CharString index="43">
            -80 callsubr
            -435.02000427246094 -55 -623 -81 -386.99000549316406 -29 -134.97999572753906 -110 -152 return
          </CharString>
          <CharString index="44">
            110 vstem
            1035.979995727539 1782.990005493164 rmoveto
            -467.99000549316406 -372 -375.99000549316406 -469.02000427246094 -468.99000549316406 373 -379 466.99000549316406 468 373 379 468.99000549316406 469.02000427246094 -372 375.99000549316406 -469.00999450683594 hvcurveto
            -1593 vmoveto
            -414.99000549316406 -315 155 callsubr
            413 411.02000427246094 314 337 415.99000549316406 417.00999450683594 314 -337 -411.02000427246094 -413 -315 -334.99000549316406 -416.00999450683594 hvcurveto
            return
          </CharString>
          <CharString index="45">
            -146 -1085.009994506836 rlineto
            -265.9700012207031 -35 -53 -204 -189.99000549316406 hhcurveto
            -28 return
          </CharString>
          <CharString index="46">
            -55.99000549316406 return
          </CharString>
          <CharString index="47">
            118 callgsubr
            -37 callgsubr
            return
          </CharString>
          <CharString index="48">
            129.99000549316406 return
          </CharString>
          <CharString index="49">
            -17 115.97000122070312 1328.009994506836 -50 callsubr
            return
          </CharString>
          <CharString index="50">
            34.97999572753906 168 89.00999450683594 82 274 29 87 callgsubr
            90.00999450683594 689.0099945068359 71.99000549316406 671 rrcurveto
            -151 hlineto
            endchar
          </CharString>
          <CharString index="51">
            -19.990005493164062 return
          </CharString>
          <CharString index="52">
            -43 callsubr
            -1.9900054931640625 9 callsubr
            103 43 callgsubr
            87 callsubr
            93 -76 25 vhcurveto
            return
          </CharString>
          <CharString index="53">
            -45 callgsubr
            52 53 -79 callgsubr
            -60 callgsubr
            201 callgsubr
            -36 40 return
          </CharString>
          <CharString index="54">
            -404 -307 -403 -531 9.990005493164062 hvcurveto
            return
          </CharString>
          <CharString index="55">
            -538 162 callsubr
            hstemhm
            347.99000549316406 -2 callsubr
            hintmask 00000000
            hintmask 11000000
            348 36 callgsubr
            -45 callsubr
            -52 callgsubr
            -60 callsubr
            134 callsubr
            -10.020004272460938 192 callsubr
            -91 callsubr
            endchar
          </CharString>
          <CharString index="56">
            -95 callsubr
            572 hmoveto
            66 callgsubr
            -40 -86 rlineto
            -19.009994506835938 24.990005493164062 24 callgsubr
            44 hvcurveto
            152.99000549316406 1139 rlineto
            258 callsubr
            hlineto
            endchar
          </CharString>
          <CharString index="57">
            120.00999450683594 return
          </CharString>
          <CharString index="58">
            rmoveto
            -222.99000549316406 -1634 101 callgsubr
            hlineto
            222 1634 rlineto
            -148 hlineto
            return
          </CharString>
          <CharString index="59">
            -3.9900054931640625 return
          </CharString>
          <CharString index="60">
            -1.9900054931640625 return
          </CharString>
          <CharString index="61">
            78.99000549316406 -87 callsubr
            return
          </CharString>
          <CharString index="62">
            -4.0200042724609375 return
          </CharString>
          <CharString index="63">
            -53 -56.02000427246094 vvcurveto
            -95.99000549316406 return
          </CharString>
          <CharString index="64">
            -24 callgsubr
            -49 -33 vhcurveto
            return
          </CharString>
          <CharString index="65">
            -91 callsubr
            584 hmoveto
            -64 callsubr
            -194 -53 28 -68 rcurveline
            201 34.97999572753906 168 89.00999450683594 82 274 29 87 callgsubr
            -23 callgsubr
            689.0099945068359 72 671 rrcurveto
            -151 hlineto
            endchar
          </CharString>
          <CharString index="66">
            122.97999572753906 return
          </CharString>
          <CharString index="67">
            1818.990005493164 rmoveto
            -57 -3 39 -41 49 hhcurveto
            75 callgsubr
            2 158 callsubr
            40 -59.99000549316406 hhcurveto
            -38 callgsubr
            -61 callsubr
            -51 -65 -4 hvcurveto
            419 hmoveto
            -58 -1 -35 callgsubr
            -40 49 hhcurveto
            62 51 83 callsubr
            -29 callgsubr
            16 callsubr
            -18 callsubr
            hvcurveto
            return
          </CharString>
          <CharString index="68">
            97.00999450683594 -278 -346 return
          </CharString>
          <CharString index="69">
            111.97999572753906 return
          </CharString>
          <CharString index="70">
            rmoveto
            -75 callgsubr
            return
          </CharString>
          <CharString index="71">
            148.99000549316406 return
          </CharString>
          <CharString index="72">
            142.99000549316406 return
          </CharString>
          <CharString index="73">
            40 -41 109 callsubr
            hhcurveto
            -42 callgsubr
            166 callgsubr
            -60 callgsubr
            119 callsubr
            -87 callgsubr
            57 callgsubr
            return
          </CharString>
          <CharString index="74">
            -42 51 hhcurveto
            61 115 callgsubr
            -56 return
          </CharString>
          <CharString index="75">
            vstem
            506 -22 rmoveto
            97 callsubr
            -86.02000427246094 139 62 callgsubr
            172 callsubr
            vhcurveto
            -93 -87 -45 callsubr
            70 callsubr
            rlineto
            70 -50 32 -95.99000549316406 -79.99000549316406 vvcurveto
            -197 -122 -130 139 callsubr
            -42 203 callsubr
            -16 228 callsubr
            149 286 vvcurveto
            return
          </CharString>
          <CharString index="76">
            -1225.009994506836 rmoveto
            -263 -8 40 293 -154.99000549316406 -18 -39 -280 -404.00999450683594 -12 583 754.0099945068359 -101.00999450683594 -7 callgsubr
            hlineto
            -610 -867 28 -74 rlineto
            525 hlineto
            -49 -347.99000549316406 rlineto
            156 hlineto
            47 347.99000549316406 rlineto
            265.00999450683594 hlineto
            15 134 rlineto
            endchar
          </CharString>
          <CharString index="77">
            rmoveto
            54 -25 40 -79 -103.99000549316406 vvcurveto
            -162 45 callgsubr
            -120.00999450683594 -107.99000549316406 -53 203 callsubr
            173 callsubr
            50 callgsubr
            -81 callgsubr
            rlineto
            184 71 126.00999450683594 176 222.99000549316406 vvcurveto
            167 callgsubr
            -36 135 -132.02000427246094 59 vhcurveto
            -79 -97 -6 -41 rlineto
            endchar
          </CharString>
          <CharString index="78">
            150.99000549316406 return
          </CharString>
          <CharString index="79">
            -64 callgsubr
            endchar
          </CharString>
          <CharString index="80">
            vstem
            192 1239.979995727539 rmoveto
            212 callsubr
            86 -139 93 callgsubr
            -33.02000427246094 vhcurveto
            93 87 -60 callgsubr
            31 rlineto
            -70 50 -32 236 callsubr
            vvcurveto
            197 122 130 79.00999450683594 42 vhcurveto
            45 callsubr
            16 -58 85 rlineto
            -127 78 callgsubr
            -182.99000549316406 -149 -286 vvcurveto
            return
          </CharString>
          <CharString index="81">
            1818.990005493164 rmoveto
            -57 -84 callgsubr
            39 -41 49 hhcurveto
            59.99000549316406 53 83 callsubr
            45 callsubr
            -34 40 -60 hhcurveto
            return
          </CharString>
          <CharString index="82">
            1932.979995727539 rmoveto
            179 callsubr
            return
          </CharString>
          <CharString index="83">
            53.99000549316406 return
          </CharString>
          <CharString index="84">
            100.99000549316406 return
          </CharString>
          <CharString index="85">
            266 -13 callsubr
            114.97000122070312 633.010009765625 99.97999572753906 602.0200042724609 112 hstem
            23 callgsubr
            vstem
            1297.979995727539 922.9900054931641 187 callsubr
            -16.020004272460938 -99 86 callgsubr
            hlineto
            -88 -698 rlineto
            return
          </CharString>
          <CharString index="86">
            1155.990005493164 return
          </CharString>
          <CharString index="87">
            -66 -89 callsubr
            117.99000549316406 1328.990005493164 116 return
          </CharString>
          <CharString index="88">
            297 0 -59 callsubr
            hstem
            -20 1339 vstem
            733 202 callgsubr
            -753 -1485.990005493164 12 -22 rlineto
            1310 hlineto
            17 122 callsubr
            -556.0099945068359 1482 rlineto
            -29.990005493164062 hlineto
            374.99000549316406 -1378 rmoveto
            -890 hlineto
            513 1054 377 -1054 rlineto
            endchar
          </CharString>
          <CharString index="89">
            -0.9900054931640625 return
          </CharString>
          <CharString index="90">
            55.99000549316406 return
          </CharString>
          <CharString index="91">
            -36 41 rlineto
            -723 hlineto
            -17 79 callgsubr
            rlineto
            return
          </CharString>
          <CharString index="92">
            73 580 rlineto
            40 -1334 rmoveto
            -40 -123 -40 callgsubr
            12 -42 hvcurveto
            171 callsubr
            619 rlineto
            -87 callgsubr
            52 71 -87 callgsubr
            139 hhcurveto
            205 -50 callgsubr
            -87.97999572753906 -179.02000427246094 3 hvcurveto
            -283 -87 callgsubr
            -214 -95 -269 hhcurveto
            endchar
          </CharString>
          <CharString index="93">
            63 -59 callgsubr
            200 212 return
          </CharString>
          <CharString index="94">
            -14.990005493164062 return
          </CharString>
          <CharString index="95">
            -20.009994506835938 return
          </CharString>
          <CharString index="96">
            613.9900054931641 return
          </CharString>
          <CharString index="97">
            71 callsubr
            -95 -39 callsubr
            57 -51 121 callsubr
            6 callgsubr
            return
          </CharString>
          <CharString index="98">
            42 -1 callsubr
            return
          </CharString>
          <CharString index="99">
            hstem
            -46 callsubr
            return
          </CharString>
          <CharString index="100">
            29 callsubr
            -756 hlineto
            return
          </CharString>
          <CharString index="101">
            1143.990005493164 rlineto
            return
          </CharString>
          <CharString index="102">
            -18.990005493164062 return
          </CharString>
          <CharString index="103">
            rmoveto
            -88 -701.0099945068359 rlineto
            -726 hlineto
            88 701.0099945068359 rlineto
            -150 92 callgsubr
            150 hlineto
            -23 callgsubr
            713.9900054931641 rlineto
            726.0200042724609 hlineto
            -17 callgsubr
            -713.9900054931641 rlineto
            151 hlineto
            192 1530 176 callgsubr
            endchar
          </CharString>
          <CharString index="104">
            118.99000549316406 901.989990234375 119 return
          </CharString>
          <CharString index="105">
            200.99000549316406 return
          </CharString>
          <CharString index="106">
            -17 30 -43 callsubr
            return
          </CharString>
          <CharString index="107">
            31 -13 callsubr
            119.97000122070312 1315 126.00999450683594 return
          </CharString>
          <CharString index="108">
            843 1195.009994506836 -19 66 rlineto
            -903 hlineto
            -16 -128 744 11 -151 -186 -822.0099945068359 -1157.020004272461 21.020004272460938 -69.97999572753906 rlineto
            970 72 callsubr
            -59 callsubr
            -811.9900054931641 77 callgsubr
            rlineto
            return
          </CharString>
          <CharString index="109">
            rmoveto
            -167 -139 -114.00999450683594 -103 -75.02000427246094 hvcurveto
            35 208 58 490 rlineto
            -140.99000549316406 hlineto
            -218 -1635 return
          </CharString>
          <CharString index="110">
            -145.02000427246094 -152.99000549316406 54 40 -38 return
          </CharString>
          <CharString index="111">
            175 callgsubr
            55 128 145 -48 callsubr
            143 callsubr
            rrcurveto
            169 120 callsubr
            -99 159 -345.99000549316406 166 callsubr
            -104 -16 -98 hhcurveto
            -68 92 callgsubr
            70 hlineto
            159 callsubr
            119 -14 77 hhcurveto
            return
          </CharString>
          <CharString index="112">
            115 callgsubr
            -61 callsubr
            37 callsubr
            -3 hvcurveto
            -57 -4 39 -42 return
          </CharString>
          <CharString index="113">
            125.5 1282.009994506836 122.49000549316406 return
          </CharString>
          <CharString index="114">
            88 13 callgsubr
            hstemhm
            792.9799957275391 149 -30.989990234375 -29 callsubr
            hintmask 10100000
            832 120 callgsubr
            -173.02000427246094 -183.99000549316406 -134 -152 -118 hvcurveto
            44 287.99000549316406 return
          </CharString>
          <CharString index="115">
            385.99000549316406 293 141 362.99000549316406 -6 44 callgsubr
            206 callgsubr
            -141 117.99000549316406 -168 19 rrcurveto
            -368 628 rmoveto
            -40 callgsubr
            -42 callgsubr
            96 callsubr
            5 30 hhcurveto
            return
          </CharString>
          <CharString index="116">
            -56 callsubr
            -45 callgsubr
            -22 callgsubr
            rlineto
            71 20.009994506835938 return
          </CharString>
          <CharString index="117">
            hstem
            172.99000549316406 -35 callsubr
            265.00999450683594 147.99000549316406 vstem
            return
          </CharString>
          <CharString index="118">
            -89 callsubr
            109.97000122070312 946.010009765625 116 return
          </CharString>
          <CharString index="119">
            61 53 52 66 1 callgsubr
            56 return
          </CharString>
          <CharString index="120">
            112 callsubr
            62 54 callsubr
            52 34 callsubr
            262 callgsubr
            36 callsubr
            111 callgsubr
            -52 -50 164 callgsubr
            return
          </CharString>
          <CharString index="121">
            183 callgsubr
            33 callsubr
            155 callgsubr
            return
          </CharString>
          <CharString index="122">
            -70 -80 callsubr
            -100 -43 -28 -47 callgsubr
            9.009994506835938 -17 vhcurveto
            return
          </CharString>
          <CharString index="123">
            -36 40 -59 hhcurveto
            -80 callsubr
            -61 -51 -65 return
          </CharString>
          <CharString index="124">
            156 711.9799957275391 121 hstem
            69 callsubr
            850.9799957275391 vstem
            233.97999572753906 832.9799957275391 rmoveto
            -28 callgsubr
            -121 rlineto
            837 hlineto
            13.990005493164062 121 rlineto
            -837 hlineto
            endchar
          </CharString>
          <CharString index="125">
            138 callsubr
            48 callsubr
            vstem
            return
          </CharString>
          <CharString index="126">
            1527.990005493164 56 callsubr
            return
          </CharString>
          <CharString index="127">
            -54 callsubr
            -59 hhcurveto
            return
          </CharString>
          <CharString index="128">
            52.97999572753906 -203 377.02000427246094 rlineto
            return
          </CharString>
          <CharString index="129">
            -89 callsubr
            115.97000122070312 return
          </CharString>
          <CharString index="130">
            184 callsubr
            192 callgsubr
            74 callgsubr
            38 66.00999450683594 rlinecurve
            68 callgsubr
            200 callsubr
            return
          </CharString>
          <CharString index="131">
            319 130 callgsubr
            -320.97999572753906 -270 return
          </CharString>
          <CharString index="132">
            116 callgsubr
            -333 -279 -249 279 return
          </CharString>
          <CharString index="133">
            28.020004272460938 52 93.99000549316406 return
          </CharString>
          <CharString index="134">
            371 -5 -164 253 -407 return
          </CharString>
          <CharString index="135">
            -36 36 callsubr
            -57 return
          </CharString>
          <CharString index="136">
            6 -50 callsubr
            rlineto
            return
          </CharString>
          <CharString index="137">
            rmoveto
            -153.99000549316406 return
          </CharString>
          <CharString index="138">
            240.99000549316406 89 -88 -152 2 hvcurveto
            -229 -87 callgsubr
            -169 -124.99000549316406 -210 86 callgsubr
            -91.02000427246094 -3 4.0099945068359375 -70.99000549316406 hvcurveto
            return
          </CharString>
          <CharString index="139">
            -47 callsubr
            111 23 -145 -87 callsubr
            hhcurveto
            106 110 80 94 214 callsubr
            -30 -43.99000549316406 -76 -80.02000427246094 hhcurveto
            return
          </CharString>
          <CharString index="140">
            -45 callsubr
            21 callgsubr
            return
          </CharString>
          <CharString index="141">
            -71 callgsubr
            4 119 callsubr
            return
          </CharString>
          <CharString index="142">
            hstemhm
            791.9799957275391 149 -32 -29 callsubr
            return
          </CharString>
          <CharString index="143">
            -21 callgsubr
            -58 hhcurveto
            return
          </CharString>
          <CharString index="144">
            -52 100 callsubr
            return
          </CharString>
          <CharString index="145">
            1020.9900054931641 return
          </CharString>
          <CharString index="146">
            2 hvcurveto
            52 95 callgsubr
            -24.990005493164062 40 -65 hhcurveto
            endchar
          </CharString>
          <CharString index="147">
            rmoveto
            109 callgsubr
            -47 -58 -70 -1 hvcurveto
            111 callgsubr
            -1 return
          </CharString>
          <CharString index="148">
            109 callsubr
            rcurveline
            63 callsubr
            rlineto
            return
          </CharString>
          <CharString index="149">
            -131 39 callgsubr
            51 30 -42 return
          </CharString>
          <CharString index="150">
            -82 callsubr
            hstem
            return
          </CharString>
          <CharString index="151">
            42.99000549316406 return
          </CharString>
          <CharString index="152">
            1.9900054931640625 return
          </CharString>
          <CharString index="153">
            hvcurveto
            45 callsubr
            265 callsubr
            -39 callgsubr
            rrcurveto
            39 callgsubr
            hlineto
            -10 callgsubr
            -15.009994506835938 150 callgsubr
            return
          </CharString>
          <CharString index="154">
            -66 16 callgsubr
            return
          </CharString>
          <CharString index="155">
            hstem
            -84 callsubr
            152 return
          </CharString>
          <CharString index="156">
            -58.99000549316406 return
          </CharString>
          <CharString index="157">
            -31.990005493164062 return
          </CharString>
          <CharString index="158">
            686 -380 rmoveto
            -239 -171 -213 -212 -176 98 -133.97999572753906 183 252 52 callgsubr
            hvcurveto
            return
          </CharString>
          <CharString index="159">
            -63 -71 callgsubr
            return
          </CharString>
          <CharString index="160">
            660 -9.990005493164062 2009.979995727539 233 callgsubr
            1718 vstem
            return
          </CharString>
          <CharString index="161">
            51.02000427246094 return
          </CharString>
          <CharString index="162">
            1361 1530 rmoveto
            -947.0200042724609 -66 callsubr
            123 hlineto
            947 1530 rlineto
            -122.99000549316406 hlineto
            -1160 -475.00999450683594 rmoveto
            return
          </CharString>
          <CharString index="163">
            rmoveto
            215 callsubr
            return
          </CharString>
          <CharString index="164">
            hstem
            -80 callsubr
            1201.990005493164 vstem
            return
          </CharString>
          <CharString index="165">
            -327.99000549316406 197 callgsubr
            return
          </CharString>
          <CharString index="166">
            327.99000549316406 return
          </CharString>
          <CharString index="167">
            -147.99000549316406 return
          </CharString>
          <CharString index="168">
            108.00999450683594 return
          </CharString>
          <CharString index="169">
            88.99000549316406 return
          </CharString>
          <CharString index="170">
            -273 349 -94 -97.00999450683594 return
          </CharString>
          <CharString index="171">
            -39 callsubr
            rlineto
            return
          </CharString>
          <CharString index="172">
            vstem
            59 callsubr
            1687 rmoveto
            -88 -721.0200042724609 rlineto
            108.02000427246094 hlineto
            -87 callsubr
            721.0200042724609 rlineto
            -174 hlineto
            return
          </CharString>
          <CharString index="173">
            -57 callgsubr
            174 callgsubr
            110 callgsubr
            return
          </CharString>
          <CharString index="174">
            159.99000549316406 return
          </CharString>
          <CharString index="175">
            76.99000549316406 return
          </CharString>
          <CharString index="176">
            219.99000549316406 return
          </CharString>
          <CharString index="177">
            -30.990005493164062 return
          </CharString>
          <CharString index="178">
            1902.979995727539 rmoveto
            return
          </CharString>
          <CharString index="179">
            hlineto
            -11 callgsubr
            return
          </CharString>
          <CharString index="180">
            398.99000549316406 1777.990005493164 rmoveto
            -163 -1290 rlineto
            69 callgsubr
            hlineto
            215 1290 rlineto
            -171.99000549316406 hlineto
            return
          </CharString>
          <CharString index="181">
            -79 callgsubr
            31 callgsubr
            return
          </CharString>
          <CharString index="182">
            -71 callgsubr
            78 callgsubr
            rlineto
            return
          </CharString>
          <CharString index="183">
            7.9900054931640625 return
          </CharString>
          <CharString index="184">
            108.99000549316406 return
          </CharString>
          <CharString index="185">
            36.99000549316406 return
          </CharString>
          <CharString index="186">
            -41.99000549316406 return
          </CharString>
          <CharString index="187">
            -78 callgsubr
            112 callgsubr
            vstem
            return
          </CharString>
          <CharString index="188">
            -76 callsubr
            endchar
          </CharString>
          <CharString index="189">
            hvcurveto
            -66 70 rlineto
            -20 callgsubr
            -33 221 callsubr
            return
          </CharString>
          <CharString index="190">
            53 46 callgsubr
            -60 callgsubr
            hvcurveto
            55 return
          </CharString>
          <CharString index="191">
            48 callgsubr
            vstem
            return
          </CharString>
          <CharString index="192">
            -61 callgsubr
            rlineto
            return
          </CharString>
          <CharString index="193">
            -63 callgsubr
            hvcurveto
            return
          </CharString>
          <CharString index="194">
            -42.99000549316406 return
          </CharString>
          <CharString index="195">
            -103.02000427246094 return
          </CharString>
          <CharString index="196">
            -7 529 rrcurveto
            -739.9900054931641 -823.0099945068359 rmoveto
            -83 -47 callsubr
            -108.00999450683594 13.990005493164062 -80 return
          </CharString>
          <CharString index="197">
            58 -84.99000549316406 rlineto
            127 65 return
          </CharString>
          <CharString index="198">
            -294.00999450683594 397 -115 -104 return
          </CharString>
          <CharString index="199">
            14.990005493164062 return
          </CharString>
          <CharString index="200">
            48.99000549316406 return
          </CharString>
          <CharString index="201">
            1636.990005493164 return
          </CharString>
          <CharString index="202">
            -135.99000549316406 return
          </CharString>
          <CharString index="203">
            113.00999450683594 return
          </CharString>
          <CharString index="204">
            141.99000549316406 return
          </CharString>
          <CharString index="205">
            -374.99000549316406 rlineto
            -413 -2 rmoveto
            71.99000549316406 -80 callsubr
            106 76 181 151 54 109 rlinecurve
            return
          </CharString>
          <CharString index="206">
            -47 207 callgsubr
            69 callgsubr
            388.989990234375 -50 callsubr
            hstem
            98.97000122070312 898 vstem
            return
          </CharString>
          <CharString index="207">
            -80 callsubr
            -65 return
          </CharString>
          <CharString index="208">
            -41 callgsubr
            hstemhm
            return
          </CharString>
          <CharString index="209">
            25 callsubr
            -81 callgsubr
            -81 callgsubr
            return
          </CharString>
          <CharString index="210">
            71 callsubr
            62 -104 152 -140 97 -58 -17 callsubr
            109 callsubr
            rcurveline
            -273 349 return
          </CharString>
          <CharString index="211">
            88 117 61 130 hhcurveto
            134 62 callsubr
            -62 -116 -252 -506 -283 -184 -105 hvcurveto
            endchar
          </CharString>
          <CharString index="212">
            -35 148 -144 hhcurveto
            -106 -118.99000549316406 -83 -83 -42 hvcurveto
            return
          </CharString>
          <CharString index="213">
            209 callgsubr
            253 callsubr
            30 callgsubr
            return
          </CharString>
          <CharString index="214">
            -65.99000549316406 return
          </CharString>
          <CharString index="215">
            269.99000549316406 return
          </CharString>
          <CharString index="216">
            50.02000427246094 return
          </CharString>
          <CharString index="217">
            -25.990005493164062 return
          </CharString>
          <CharString index="218">
            106.99000549316406 rlineto
            -142 84.00999450683594 -198 269.97999572753906 308 vvcurveto
            435.02000427246094 return
          </CharString>
          <CharString index="219">
            40 -41 185 callsubr
            return
          </CharString>
          <CharString index="220">
            600.9900054931641 535.9799957275391 rmoveto
            -29 -240.99000549316406 rlineto
            138 hlineto
            29 240.99000549316406 return
          </CharString>
          <CharString index="221">
            -49 callsubr
            endchar
          </CharString>
          <CharString index="222">
            180 callsubr
            88 -162 return
          </CharString>
          <CharString index="223">
            -40 49 hhcurveto
            180 callgsubr
            return
          </CharString>
          <CharString index="224">
            151.97999572753906 934.0099945068359 hstem
            return
          </CharString>
          <CharString index="225">
            -99 -35 144 -146 hhcurveto
            return
          </CharString>
          <CharString index="226">
            hvcurveto
            -24 callsubr
            return
          </CharString>
          <CharString index="227">
            -3.0200042724609375 return
          </CharString>
          <CharString index="228">
            97.02000427246094 return
          </CharString>
          <CharString index="229">
            25.990005493164062 return
          </CharString>
          <CharString index="230">
            -106.99000549316406 return
          </CharString>
          <CharString index="231">
            85.00999450683594 -452 377 556.0099945068359 383 -29 89 -695.0099945068359 -415 rlineto
            return
          </CharString>
          <CharString index="232">
            112.99000549316406 151 callsubr
            return
          </CharString>
          <CharString index="233">
            316.97999572753906 return
          </CharString>
          <CharString index="234">
            299.00999450683594 return
          </CharString>
          <CharString index="235">
            -25 141 callsubr
            -30 12 193 callsubr
            return
          </CharString>
          <CharString index="236">
            61 52 53 -79 callgsubr
            4 hvcurveto
            54 262 callgsubr
            40 -59 hhcurveto
            return
          </CharString>
          <CharString index="237">
            -29 callsubr
            427.00999450683594 return
          </CharString>
          <CharString index="238">
            -1140 rlineto
            147.99000549316406 hlineto
            return
          </CharString>
          <CharString index="239">
            60 callsubr
            hhcurveto
            return
          </CharString>
          <CharString index="240">
            -1 70 -10 callgsubr
            -5 -95.99000549316406 rrcurveto
            -181 -6 -200 -65 -151 hhcurveto
            return
          </CharString>
          <CharString index="241">
            -56 34 callgsubr
            return
          </CharString>
          <CharString index="242">
            72 callgsubr
            57 -51 return
          </CharString>
          <CharString index="243">
            183 callsubr
            152 return
          </CharString>
          <CharString index="244">
            31 callgsubr
            -59 hhcurveto
            return
          </CharString>
          <CharString index="245">
            63 -19 -59 callsubr
            return
          </CharString>
          <CharString index="246">
            -79.00999450683594 return
          </CharString>
          <CharString index="247">
            -66.00999450683594 return
          </CharString>
          <CharString index="248">
            19.990005493164062 return
          </CharString>
          <CharString index="249">
            -90.99000549316406 return
          </CharString>
          <CharString index="250">
            217.99000549316406 return
          </CharString>
          <CharString index="251">
            45 callsubr
            238 callgsubr
            39 callgsubr
            hlineto
            62 callgsubr
            return
          </CharString>
          <CharString index="252">
            hstemhm
            748.9900054931641 -36 callsubr
            50 callsubr
            149.99000549316406 return
          </CharString>
          <CharString index="253">
            1653.990005493164 rmoveto
            198 callgsubr
            return
          </CharString>
          <CharString index="254">
            108 callsubr
            219.02000427246094 -264.99000549316406 119 callgsubr
            return
          </CharString>
          <CharString index="255">
            173 67 callsubr
            87 186 158 -104 92 -165.99000549316406 -158 return
          </CharString>
          <CharString index="256">
            58 -99 190 -184 96 callgsubr
            -65 return
          </CharString>
          <CharString index="257">
            -8 callsubr
            vstem
            return
          </CharString>
          <CharString index="258">
            165 vvcurveto
            92 -43 93 -76 25 vhcurveto
            return
          </CharString>
          <CharString index="259">
            -332 997.9900054931641 158 return
          </CharString>
          <CharString index="260">
            -118.00999450683594 rlineto
            152 hlineto
            return
          </CharString>
          <CharString index="261">
            -29 callgsubr
            hvcurveto
            return
          </CharString>
          <CharString index="262">
            334.99000549316406 return
          </CharString>
          <CharString index="263">
            188.99000549316406 return
          </CharString>
          <CharString index="264">
            12.990005493164062 return
          </CharString>
          <CharString index="265">
            -34.02000427246094 return
          </CharString>
          <CharString index="266">
            70.99000549316406 return
          </CharString>
          <CharString index="267">
            hlineto
            -28 callgsubr
            -121 rlineto
            224.99000549316406 hlineto
            161 5 rlineto
            return
          </CharString>
          <CharString index="268">
            hvcurveto
            -310.00999450683594 5 return
          </CharString>
          <CharString index="269">
            1706.979995727539 213 return
          </CharString>
          <CharString index="270">
            0 1529.990005493164 hstem
            return
          </CharString>
          <CharString index="271">
            -139 -87 -201 -170 return
          </CharString>
          <CharString index="272">
            181 callsubr
            16 return
          </CharString>
          <CharString index="273">
            -107.00999450683594 return
          </CharString>
          <CharString index="274">
            90.99000549316406 return
          </CharString>
          <CharString index="275">
            138.99000549316406 return
          </CharString>
          <CharString index="276">
            38.02000427246094 return
          </CharString>
          <CharString index="277">
            -126.02000427246094 return
          </CharString>
          <CharString index="278">
            78.00999450683594 return
          </CharString>
          <CharString index="279">
            32.99000549316406 return
          </CharString>
          <CharString index="280">
            -17.979995727539062 return
          </CharString>
          <CharString index="281">
            -117.99000549316406 return
          </CharString>
          <CharString index="282">
            742.9900054931641 return
          </CharString>
          <CharString index="283">
            925.9799957275391 813.9900054931641 hstem
            192 123 callgsubr
            return
          </CharString>
          <CharString index="284">
            -521.9900054931641 813.9700012207031 hstem
            340.99000549316406 165 return
          </CharString>
          <CharString index="285">
            hhcurveto
            -439.00999450683594 -193.99000549316406 -428.00999450683594 -313 return
          </CharString>
          <CharString index="286">
            238 -319 197 callgsubr
            return
          </CharString>
          <CharString index="287">
            140 callgsubr
            rmoveto
            -160 return
          </CharString>
          <CharString index="288">
            127 165 146 return
          </CharString>
          <CharString index="289">
            -38 callgsubr
            82 return
          </CharString>
          <CharString index="290">
            hstem
            62 callsubr
            return
          </CharString>
          <CharString index="291">
            1303.979995727539 rmoveto
            return
          </CharString>
          <CharString index="292">
            60 callgsubr
            hhcurveto
            return
          </CharString>
          <CharString index="293">
            267 -89 callsubr
            114.97000122070312 1335 112 return
          </CharString>
          <CharString index="294">
            rmoveto
            27 callsubr
            -105.99000549316406 -131 return
          </CharString>
          <CharString index="295">
            173 callgsubr
            97.00999450683594 return
          </CharString>
          <CharString index="296">
            -6 callgsubr
            -88 17 -69 hhcurveto
            return
          </CharString>
          <CharString index="297">
            114.00999450683594 return
          </CharString>
          <CharString index="298">
            -85.00999450683594 return
          </CharString>
          <CharString index="299">
            -274.97999572753906 return
          </CharString>
          <CharString index="300">
            70 callgsubr
            -84 callgsubr
            -17 callgsubr
            rlinecurve
            return
          </CharString>
          <CharString index="301">
            1189.990005493164 591.9900054931641 hstem
            300.99000549316406 return
          </CharString>
          <CharString index="302">
            965.9799957275391 721.0200042724609 hstem
            239.97999572753906 return
          </CharString>
          <CharString index="303">
            206.99000549316406 -78.00999450683594 77 -150 vhcurveto
            endchar
          </CharString>
          <CharString index="304">
            -11 callsubr
            479 -11 -47 callgsubr
            127 return
          </CharString>
          <CharString index="305">
            241 callsubr
            493 113 return
          </CharString>
          <CharString index="306">
            hlineto
            -343 -376.00999450683594 rlineto
            return
          </CharString>
          <CharString index="307">
            -18 callgsubr
            rlineto
            return
          </CharString>
          <CharString index="308">
            -66 callsubr
            151 hlineto
            return
          </CharString>
          <CharString index="309">
            1409.990005493164 rmoveto
            return
          </CharString>
          <CharString index="310">
            vhcurveto
            -47 callsubr
            return
          </CharString>
          <CharString index="311">
            1863.990005493164 rmoveto
            return
          </CharString>
          <CharString index="312">
            105.99000549316406 return
          </CharString>
          <CharString index="313">
            110.97999572753906 return
          </CharString>
          <CharString index="314">
            -112.99000549316406 return
          </CharString>
          <CharString index="315">
            68.02000427246094 return
          </CharString>
          <CharString index="316">
            31.009994506835938 return
          </CharString>
          <CharString index="317">
            212.99000549316406 return
          </CharString>
          <CharString index="318">
            132.99000549316406 return
          </CharString>
          <CharString index="319">
            -141.99000549316406 return
          </CharString>
          <CharString index="320">
            134 callsubr
            -57 return
          </CharString>
          <CharString index="321">
            172 callgsubr
            hvcurveto
            -66 70 rlineto
            -20 callgsubr
            return
          </CharString>
          <CharString index="322">
            -57 -4 39 186 callgsubr
            -79 callgsubr
            return
          </CharString>
          <CharString index="323">
            118 callsubr
            -103 -118 -83 -83 -42 hvcurveto
            return
          </CharString>
          <CharString index="324">
            57 callgsubr
            -3 hvcurveto
            return
          </CharString>
          <CharString index="325">
            -46.02000427246094 vhcurveto
            -16 -110.97999572753906 rlineto
            return
          </CharString>
          <CharString index="326">
            112 hstemhm
            23 callgsubr
            return
          </CharString>
          <CharString index="327">
            104 rlinecurve
            -95 64 callsubr
            return
          </CharString>
          <CharString index="328">
            -42 -13 callgsubr
            -80 hhcurveto
            return
          </CharString>
          <CharString index="329">
            -69.97999572753906 -506 rlineto
            return
          </CharString>
          <CharString index="330">
            208.02000427246094 return
          </CharString>
          <CharString index="331">
            101.00999450683594 return
          </CharString>
          <CharString index="332">
            150.50999450683594 return
          </CharString>
          <CharString index="333">
            -322.99000549316406 return
          </CharString>
          <CharString index="334">
            52.99000549316406 return
          </CharString>
          <CharString index="335">
            90 callsubr
            183 return
          </CharString>
          <CharString index="336">
            70 525.9799957275391 119 788 113 return
          </CharString>
          <CharString index="337">
            150.00999450683594 -33.00999450683594 152 return
          </CharString>
          <CharString index="338">
            hlineto
            174 callgsubr
            110 callgsubr
            rlineto
            return
          </CharString>
          <CharString index="339">
            hstem
            92 callsubr
            1166.990005493164 vstem
            return
          </CharString>
          <CharString index="340">
            1550.990005493164 rmoveto
            return
          </CharString>
          <CharString index="341">
            -38 callgsubr
            -65 return
          </CharString>
          <CharString index="342">
            1287.990005493164 rmoveto
            return
          </CharString>
          <CharString index="343">
            -12 callgsubr
            80 return
          </CharString>
          <CharString index="344">
            -132 0 128 hstem
            return
          </CharString>
          <CharString index="345">
            1620.990005493164 rmoveto
            return
          </CharString>
          <CharString index="346">
            hstemhm
            -23 callgsubr
            161.99000549316406 return
          </CharString>
          <CharString index="347">
            -32 callgsubr
            53 -205 348 rlineto
            return
          </CharString>
          <CharString index="348">
            117.99000549316406 340.97999572753906 107 return
          </CharString>
          <CharString index="349">
            hlineto
            -18 callsubr
            -6 0 -9 -6 vvcurveto
            return
          </CharString>
          <CharString index="350">
            925 rmoveto
            376 -284 245 -356 return
          </CharString>
          <CharString index="351">
            0 116 1310.979995727539 119 hstem
            return
          </CharString>
          <CharString index="352">
            hstemhm
            -46 callsubr
            return
          </CharString>
          <CharString index="353">
            -41 -216 -104 -138 -36 return
          </CharString>
          <CharString index="354">
            hstemhm
            98 -87 callsubr
            return
          </CharString>
          <CharString index="355">
            -254.02000427246094 return
          </CharString>
          <CharString index="356">
            58.97999572753906 return
          </CharString>
          <CharString index="357">
            254.02000427246094 return
          </CharString>
          <CharString index="358">
            45.02000427246094 return
          </CharString>
          <CharString index="359">
            84.99000549316406 return
          </CharString>
          <CharString index="360">
            217.00999450683594 return
          </CharString>
          <CharString index="361">
            -72.00999450683594 return
          </CharString>
          <CharString index="362">
            203.00999450683594 return
          </CharString>
          <CharString index="363">
            155.02000427246094 return
          </CharString>
          <CharString index="364">
            677.9900054931641 return
          </CharString>
          <CharString index="365">
            -148.99000549316406 return
          </CharString>
          <CharString index="366">
            741.9900054931641 return
          </CharString>
          <CharString index="367">
            322.00999450683594 return
          </CharString>
          <CharString index="368">
            rlineto
            68 callsubr
            hlineto
            56 110 return
          </CharString>
          <CharString index="369">
            rlineto
            782.0099945068359 hlineto
            5 122 return
          </CharString>
          <CharString index="370">
            58 42.97999572753906 75 10 hvcurveto
            59 return
          </CharString>
          <CharString index="371">
            -1137 rlineto
            147.99000549316406 hlineto
            return
          </CharString>
          <CharString index="372">
            11 1 11 -1 return
          </CharString>
        <CharString name=".notdef">
          735 0 230.99000549316406 949 235.99000549316406 hstem
          69 callsubr
          240.99000549316406 924.9999847412109 239 vstem
          220 1415.990005493164 rmoveto
          -1415.990005493164 1404.990005493164 1415.990005493164 -1404.990005493164 vlineto
          362.99000549316406 -1183.990005493164 rmoveto
          77 callgsubr
          11 -102.00999450683594 115 -10 12 350 155 callsubr
          rcurveline
          -351.00999450683594 356 116 119.00999450683594 346.00999450683594 -363.00999450683594 342 362 121 79 callgsubr
          -355 -350.99000549316406 355 -362 -115 -116 -351 363.99000549316406 -337 -362.99000549316406 rlineto
          endchar
        </CharString>
        <CharString name="A">
          -65 callsubr
          57 callsubr
          1001.9799957275391 hmoveto
          -100 callsubr
        </CharString>
        <CharString name="AE">
          47 callgsubr
          1710.979995727539 1409.990005493164 -62 callgsubr
        </CharString>
        <CharString name="AEacute">
          47 callgsubr
          1384 71 callsubr
          -95 -39 callsubr
          198 callgsubr
          126 callgsubr
          104 rlinecurve
          326.97999572753906 -493 -62 callgsubr
        </CharString>
        <CharString name="Aacute">
          -65 callsubr
          57 callsubr
          1113.990005493164 -10 callsubr
          -112 -1902.979995727539 rmoveto
          -100 callsubr
        </CharString>
        <CharString name="Abreve">
          -65 callsubr
          106.989990234375 112 hstem
          505.99000549316406 179 callgsubr
          802 235 callgsubr
          127 callgsubr
          165 callsubr
          hvcurveto
          2 238 callgsubr
          -101 hlineto
          62 callgsubr
          -15 47 callsubr
          87 callgsubr
          -11 hvcurveto
          -2 -39 callgsubr
          -0.9799957275390625 12 76 callsubr
          vvcurveto
          88 callsubr
          242 callsubr
          125 callgsubr
          vhcurveto
          199.99000549316406 251 callgsubr
          rmoveto
          -100 callsubr
        </CharString>
        <CharString name="Acircumflex">
          -81 callsubr
        </CharString>
        <CharString name="Adieresis">
          -65 callsubr
          191 35 callgsubr
          502.97999572753906 106 callsubr
          587.9799957275391 1721 rmoveto
          75 callgsubr
          2 -34 40 -60 hhcurveto
          -80 callsubr
          -56.02000427246094 -51 -65 -4 hvcurveto
          -57 -84 callgsubr
          39 118 callgsubr
          420 hmoveto
          126 callgsubr
          51 85 callgsubr
          4 -35.99000549316406 40 -59 hhcurveto
          -50 -60.99000549316406 -51 -65 -1 hvcurveto
          -58 -1 38 -40 93 callsubr
          hhcurveto
          -6 -1721 rmoveto
          -100 callsubr
        </CharString>
        <CharString name="Agrave">
          -65 callsubr
          57 callsubr
          820.9799957275391 1600.979995727539 rmoveto
          56 109 callsubr
          63 callsubr
          62 -104 152 -140 97 -58 rlinecurve
          181 -1600.979995727539 rmoveto
          -100 callsubr
        </CharString>
        <CharString name="Amacron">
          -65 callsubr
          217.989990234375 113.99000549316406 57 callsubr
          1038.990005493164 183 callgsubr
          -510 hlineto
          33 callsubr
          -37 -1861.979995727539 rmoveto
          -100 callsubr
        </CharString>
        <CharString name="Aogonek">
          155 264 callgsubr
          752.9799957275391 115.00999450683594 849.0000152587891 135 hstem
          259 callsubr
          148 vstem
          1135.979995727539 -264 rmoveto
          -16 callgsubr
          -5 callgsubr
          -54 -12 callsubr
          -55 hhcurveto
          -51 -36.99000549316406 26 callsubr
          -87 callsubr
          236 callsubr
          52 hvcurveto
          28.020004272460938 hlineto
          -289.02000427246094 1530 rlineto
          -168 hlineto
          -744.9799957275391 -66 callsubr
          160.97000122070312 hlineto
          201 430.97999572753906 rlineto
          -11 callsubr
          hlineto
          76 -430 rlineto
          -88.99000549316406 -5 callgsubr
          -171 -100 -139 vvcurveto
          -58 51 142 callsubr
          137 116 252 callsubr
          -17 callsubr
          38 45 vhcurveto
          -40 85 callsubr
          -769.9900054931641 810 rmoveto
          341 729.9900054931641 55 119.00999450683594 15 -115 129 -734 rlineto
          -540 hlineto
          endchar
        </CharString>
        <CharString name="Aring">
          155 430.97999572753906 115.00999450683594 1369.990005493164 84 hstem
          497.99000549316406 107 395.989990234375 109.00999450683594 vstem
          1001.9799957275391 hmoveto
          61 callgsubr
          hlineto
          -282.00999450683594 1490.979995727539 rlineto
          133 208 callgsubr
          107.00999450683594 81 152 vvcurveto
          157 -104 94 -166 -158 -183.99000549316406 -83 -188.99000549316406 -123 64 -82 116 -29 vhcurveto
          -727.9799957275391 -1494 rlineto
          160.97000122070312 hlineto
          201 430.97999572753906 rlineto
          -11 callsubr
          hlineto
          76 -430.97999572753906 rlineto
          -396.99000549316406 1722.979995727539 rmoveto
          61 callgsubr
          120 44 callsubr
          103 106 -79 callgsubr
          -62 -92 -158 -105.99000549316406 -39 -112 166 callsubr
          -70.99000549316406 68 -23 callgsubr
          vhcurveto
          -239 -1176.990005493164 rmoveto
          341 729.9900054931641 55 119.00999450683594 15 -115 129 -734 rlineto
          -540 hlineto
          endchar
        </CharString>
        <CharString name="Atilde">
          -65 callsubr
          163 22 callgsubr
          -80 callsubr
          1247.979995727539 hintmask 10101000
          660.9900054931641 1839.979995727539 rmoveto
          32 callsubr
          hintmask 10111000
          -98 105 callsubr
          -79 callgsubr
          78 callgsubr
          rlineto
          hintmask 10101000
          -56 callgsubr
          37 43 63 80 hhcurveto
          hintmask 11101000
          34 -309.97999572753906 rmoveto
          -744.9799957275391 -66 callsubr
          160.97000122070312 hlineto
          201 430.97999572753906 rlineto
          -11 callsubr
          hlineto
          76 -430.97999572753906 rlineto
          61 callgsubr
          hlineto
          -289.02000427246094 1530 rlineto
          -168 hlineto
          -328.99000549316406 -984 rmoveto
          341 729.9900054931641 55 119.00999450683594 15 -115 129 -734 rlineto
          -540 hlineto
          endchar
        </CharString>
        <CharString name="B">
          129 callgsubr
          hstemhm
          970.9900054931641 67 callsubr
          -142.99000549316406 -29 callsubr
          hintmask 11110000
          819 799.9900054931641 rmoveto
          hintmask 11101000
          4 callsubr
          hintmask 11110000
          8 callsubr
          hintmask 11101000
          31 callsubr
          hintmask 11110000
          -15 callsubr
        </CharString>
        <CharString name="C">
          0 callsubr
          200 callgsubr
          823.9900054931641 1545.990005493164 -100 callgsubr
        </CharString>
        <CharString name="CR">
          -1110 endchar
        </CharString>
        <CharString name="Cacute">
          0 callsubr
          200 callgsubr
          758.9900054931641 135 callsubr
          121 callsubr
          27 callgsubr
          -95.00999450683594 64 callsubr
          65 -108 -100 callgsubr
        </CharString>
        <CharString name="Ccaron">
          0 callsubr
          225 callgsubr
          116 200 callgsubr
          492.99000549316406 -25 callsubr
          321.97999572753906 113 callgsubr
          331 -386.99000549316406 -100 callgsubr
        </CharString>
        <CharString name="Ccedilla">
          31 -462.99000549316406 108 callgsubr
          324 117.99000549316406 1314.989990234375 126.00999450683594 hstem
          110 -87 callsubr
          328 130.99000549316406 vstem
          817.9900054931641 1419.979995727539 rmoveto
          160.99000549316406 73.02000427246094 -44 -18 41.99000549316406 hvcurveto
          53 126 -51 16.020004272460938 rlineto
          22 -72 callsubr
          -76 24 -129 hhcurveto
          -408 -316 -371 -548 -39 callgsubr
          hvcurveto
          5 -299.00999450683594 117.99000549316406 -320 351 -21.990005493164062 rrcurveto
          6 -39 2 -5 callgsubr
          -42 vvcurveto
          -143.02000427246094 15 callsubr
          -56 callsubr
          -115 rlineto
          -16.020004272460938 22 71 -12.990005493164062 227 callsubr
          hhcurveto
          143 69 callgsubr
          69 215 70 -11 50 callgsubr
          -17 41 hvcurveto
          188 11 105 54 60 callgsubr
          190 callgsubr
          -23 128 rcurveline
          -38.99000549316406 -54.99000549316406 -146 -81 callgsubr
          -165 hhcurveto
          -270.00999450683594 -110 249.02000427246094 287.99000549316406 -5 hvcurveto
          349 -7 169 429 392.00999450683594 hhcurveto
          endchar
        </CharString>
        <CharString name="Ccircumflex">
          0 callsubr
          200 callgsubr
          479.99000549316406 1652.979995727539 rmoveto
          59 -58.99000549316406 330 269.99000549316406 66 callsubr
          rlineto
          344 123 callsubr
          -100 callgsubr
        </CharString>
        <CharString name="Cdotaccent">
          0 callsubr
          160.99000549316406 213 hstem
          110 -87 callsubr
          467 -2 callsubr
          vstem
          730.9900054931641 36 callgsubr
          -4 39 -60 callsubr
          -56.02000427246094 34 callgsubr
          93 -258.99000549316406 -100 callgsubr
        </CharString>
        <CharString name="D">
          186 callsubr
          hstem
          23 callgsubr
          vstem
          1297.979995727539 921.9900054931641 -93 callsubr
        </CharString>
        <CharString name="Dcaron">
          186 callsubr
          68 116 hstem
          23 callgsubr
          vstem
          827.9900054931641 1613.990005493164 rmoveto
          322 -46 callgsubr
          -81 callgsubr
          -81 callgsubr
          179 callsubr
          470 -692 -93 callsubr
        </CharString>
        <CharString name="Dcroat">
          -22 callsubr
          -161.02000427246094 hlineto
          -12 -99.99000549316406 rlineto
          160 -34 callgsubr
          429 hlineto
          12 99.99000549316406 rlineto
          -427.99000549316406 9 callgsubr
        </CharString>
        <CharString name="E">
          28 0 -86 callgsubr
          236 callgsubr
          314 1530 -99 callsubr
        </CharString>
        <CharString name="Eacute">
          28 0 -86 callgsubr
          236 callgsubr
          658.9799957275391 135 callsubr
          97.00999450683594 59 157 136.99000549316406 62 220 callsubr
          -344.99000549316406 -123.99000549316406 -99 callsubr
        </CharString>
        <CharString name="Ebreve">
          28 0 -86 callgsubr
          106.99000549316406 112 hstem
          423.99000549316406 104 426 99 vstem
          424 115 callsubr
          207.99000549316406 190 181 callsubr
          16.020004272460938 vhcurveto
          114 callgsubr
          -9 callgsubr
          -103.00999450683594 242 callsubr
          -110 -429 -99 callsubr
        </CharString>
        <CharString name="Ecaron">
          28 0 -86 callgsubr
          93 callgsubr
          116 hstem
          121 967 vstem
          392.99000549316406 -25 callsubr
          260 callsubr
          24 callsubr
          -244.02000427246094 270 -72 callsubr
          -81 callgsubr
          rlineto
          -79 -402.99000549316406 -99 callsubr
        </CharString>
        <CharString name="Ecircumflex">
          28 0 -86 callgsubr
          236 callgsubr
          379.99000549316406 1652.979995727539 rmoveto
          59 -58.99000549316406 330 269.99000549316406 -57 callgsubr
          -340 110 callgsubr
          rlineto
          107 callsubr
          -122.99000549316406 -99 callsubr
        </CharString>
        <CharString name="Edieresis">
          28 0 -86 callgsubr
          191.00001525878906 35 callgsubr
          419.97999572753906 199 callgsubr
          vstem
          419.97999572753906 -26 callsubr
          -50 -61 callsubr
          -51 -65 -45 callsubr
          hvcurveto
          419 hmoveto
          -58 -1 38 116 callsubr
          4 hvcurveto
          55 -60 callgsubr
          16 callsubr
          -1 hvcurveto
          -524.9900054931641 -289 -99 callsubr
        </CharString>
        <CharString name="Edotaccent">
          28 0 -86 callgsubr
          258 callgsubr
          213 hstem
          629.9799957275391 201 vstem
          629.9900054931641 -66 callgsubr
          -61 callsubr
          181 callgsubr
          -315.99000549316406 192 callsubr
          -99 callsubr
        </CharString>
        <CharString name="Egrave">
          28 0 -86 callgsubr
          236 callgsubr
          427.99000549316406 71 callsubr
          -42 callgsubr
          -104 152 -140 121 callgsubr
          -58 56.02000427246094 41 callsubr
          -114 -372.99000549316406 -99 callsubr
        </CharString>
        <CharString name="Emacron">
          28 0 -86 callgsubr
          143 callsubr
          113.99000549316406 236 callgsubr
          447 14 callsubr
          -133 -331.99000549316406 -99 callsubr
        </CharString>
        <CharString name="Eng">
          378 -315 1845 hstem
          165 callgsubr
          vstem
          1189.990005493164 1530 rmoveto
          -134 -1096 -20.990005493164062 -238 -72 206.99000549316406 -491.00999450683594 1127.020004272461 rlineto
          -157.99000549316406 92 callgsubr
          140.99000549316406 hlineto
          134 1072.990005493164 29 288.00999450683594 72 -239 489 -1110.020004272461 -43.99000549316406 -114.97000122070312 68 callgsubr
          -101.00999450683594 -153.99000549316406 -43 rlinecurve
          28 -68 197 35 171 87 68 193 rlinecurve
          3 hlineto
          192.99000549316406 1530 rlineto
          -142.99000549316406 hlineto
          endchar
        </CharString>
        <CharString name="Eogonek">
          28 264 callgsubr
          322 -86 callgsubr
          hstem
          559.9799957275391 148 vstem
          1064 202 callsubr
          -7 callsubr
          -193 -1530 rlineto
          703 hlineto
          -17 callgsubr
          -80 callsubr
          -174 -99 -138.02000427246094 vvcurveto
          -58 51 142 callsubr
          137.02000427246094 116 86 -17 callsubr
          38 44 vhcurveto
          -22 callgsubr
          -7 callgsubr
          -5 callgsubr
          -55 -12 callsubr
          -54.99000549316406 hhcurveto
          143 callgsubr
          -36.99000549316406 26 callsubr
          67 callsubr
          -12 callgsubr
          79.02000427246094 52 hvcurveto
          64 hlineto
          11 127 -737 -13 -61 callgsubr
          197 callsubr
          -473.99000549316406 -6 -76 callgsubr
          579.0099945068359 614.0099945068359 -7 rlineto
          endchar
        </CharString>
        <CharString name="Eth">
          -22 callsubr
          -162 hlineto
          -12 -99.99000549316406 rlineto
          161 -34 callgsubr
          428.00999450683594 hlineto
          11.979995727539062 99.99000549316406 rlineto
          -426.99000549316406 9 callgsubr
        </CharString>
        <CharString name="Euro">
          271 -89 callsubr
          -84 callsubr
          464.99000549316406 38 callgsubr
          247.00999450683594 38 callgsubr
          406.99998474121094 190 callsubr
          hstem
          236.99000549316406 171 callgsubr
          vstem
          893.9900054931641 1431.979995727539 rmoveto
          67 callsubr
          105 -35 110 callsubr
          36 hvcurveto
          49 121 rlineto
          23 -71 -17 callgsubr
          31 132 callsubr
          -296 -245 -197 -324.02000427246094 -105 hvcurveto
          -198 hlineto
          -16 -107.99000549316406 rlineto
          186 hlineto
          -17 -77 -63 callgsubr
          -82 -1 -88 rrcurveto
          -192 hlineto
          -16 -107.99000549316406 rlineto
          211 hlineto
          -289 22 135 -288.97999572753906 310.99000549316406 hhcurveto
          201 173 54.97999572753906 71.99000549316406 63 hvcurveto
          87 callsubr
          104.02000427246094 rlineto
          -61 -10 callgsubr
          -115 -57 -173 hhcurveto
          -220.02000427246094 -98 194.99000549316406 270.00999450683594 -13 hvcurveto
          568.0099945068359 hlineto
          92 callsubr
          38 callgsubr
          rlineto
          -584.9900054931641 hlineto
          45 callsubr
          88 8 82 92 callsubr
          77 rrcurveto
          594 hlineto
          193 callgsubr
          38 callgsubr
          rlineto
          -583 hlineto
          248.02000427246094 74 151 171 callgsubr
          224 hhcurveto
          endchar
        </CharString>
        <CharString name="F">
          146 callgsubr
          hstem
          121 972 vstem
          314 1530 20 callgsubr
        </CharString>
        <CharString name="G">
          80 callsubr
          786.9799957275391 607.9900054931641 -106 callgsubr
          endchar
        </CharString>
        <CharString name="Gbreve">
          -78 callgsubr
          90.989990234375 112 112 callgsubr
          291.010009765625 104 426 99 vstem
          851.9900054931641 235 callgsubr
          190 127.02000427246094 165 146 16 hvcurveto
          114 callgsubr
          150 callgsubr
          191 callgsubr
          222 callgsubr
          -2 7 callgsubr
          -103 hlineto
          -1 -6 0 -9 -6 vvcurveto
          -160 88 -162 208 vhcurveto
          -65 -1029 -106 callgsubr
          endchar
        </CharString>
        <CharString name="Gcaron">
          -78 callgsubr
          67.989990234375 116 112 callgsubr
          vstem
          897.9900054931641 1613.990005493164 rmoveto
          322 -46 callgsubr
          -81 callgsubr
          -81 callgsubr
          179 callsubr
          -111 -1006 -106 callgsubr
          endchar
        </CharString>
        <CharString name="Gcircumflex">
          80 callsubr
          901 204 callsubr
          218.99000549316406 -264.99000549316406 73 53 -204.99000549316406 194 callgsubr
          249 callsubr
          49 callsubr
          330.02000427246094 108 callsubr
          rlineto
          -114.02000427246094 -1256 -106 callgsubr
          endchar
        </CharString>
        <CharString name="Gcommaaccent">
          -78 callgsubr
          112 callgsubr
          345.99000549316406 145.00999450683594 vstem
          786.9799957275391 607.9900054931641 -106 callgsubr
          -150 -659.9799957275391 rmoveto
          -94 -91 -4 -41 rlineto
          42 -17 228 callgsubr
          -44 callsubr
          -38.99000549316406 -69 callgsubr
          endchar
        </CharString>
        <CharString name="Gdotaccent">
          -78 callgsubr
          160.989990234375 213 112 callgsubr
          497.010009765625 -2 callsubr
          vstem
          845.9900054931641 187 callgsubr
          -87 callgsubr
          -35 -52 callgsubr
          -58.97999572753906 hhcurveto
          143 callgsubr
          213 callsubr
          159 callgsubr
          39 118 callgsubr
          -59 -1099 -106 callgsubr
          endchar
        </CharString>
        <CharString name="Gtilde">
          -78 callgsubr
          147 22 callgsubr
          -38 callsubr
          153 hintmask 11110100
          710.9799957275391 1839.979995727539 rmoveto
          33 callgsubr
          214 callgsubr
          -29.979995727539062 -44.02000427246094 -76 -80 hhcurveto
          hintmask 11111100
          40 callgsubr
          75 callsubr
          hintmask 11110100
          -56 callgsubr
          78 callsubr
          43 63 80 hhcurveto
          132.02000427246094 -415.99000549316406 rmoveto
          181.99000549316406 115.02000427246094 -47 -35 58.99000549316406 hvcurveto
          48 -50 callgsubr
          -39 12 rlineto
          21.020004272460938 -81 callgsubr
          -111 34 -185 hhcurveto
          -414 -328.99000549316406 -370.00999450683594 -548.9900054931641 9.990005493164062 161 callsubr
          139.02000427246094 -333.97999572753906 360 hhcurveto
          157 140 47.97999572753906 30 99.99000549316406 hvcurveto
          54 16 44 13 39 4 82 635 rcurveline
          -430 hlineto
          -15.020004272460938 -121 281.00999450683594 -1 -53 -420.99000549316406 rlineto
          -43 -113.99000549316406 -144.02000427246094 -42 -113.99000549316406 hhcurveto
          -277 -99 277.00999450683594 266 -2 hvcurveto
          371 -4 191 409 391 hhcurveto
          endchar
        </CharString>
        <CharString name="H">
          177 callgsubr
          1189.990005493164 1530 -4 callsubr
        </CharString>
        <CharString name="Hbar">
          300 609.9900054931641 115 310.989990234375 115.00999450683594 hstem
          -17 callsubr
          1459.990005493164 vstem
          1515.990005493164 1151 rmoveto
          -224 hlineto
          48 379 176 callgsubr
          -48 -379 rlineto
          -726 hlineto
          48 379 176 callgsubr
          -48 -379 rlineto
          -199 hlineto
          -11 68 callgsubr
          rlineto
          196 hlineto
          -130.99000549316406 -1035.979995727539 rlineto
          150 hlineto
          77 610 rlineto
          726 hlineto
          -77 -610 rlineto
          151 hlineto
          130 1035.979995727539 rlineto
          227 hlineto
          11 115.02000427246094 rlineto
          -427.99000549316406 -426 rmoveto
          -726.0200042724609 hlineto
          40 310.99000549316406 rlineto
          726.0200042724609 hlineto
          -40 -310.99000549316406 rlineto
          endchar
        </CharString>
        <CharString name="Hcircumflex">
          177 callgsubr
          890.9799957275391 204 callsubr
          -57 callgsubr
          -340 110 callgsubr
          59 49 callsubr
          330 108 callsubr
          rlineto
          127 callsubr
          -333.99000549316406 -4 callsubr
        </CharString>
        <CharString name="I">
          -538 163 callsubr
          144.99000549316406 343.97999572753906 vstem
          337.97999572753906 1530 -91 callsubr
          endchar
        </CharString>
        <CharString name="I.uc">
          -52 callsubr
        </CharString>
        <CharString name="IJ">
          46 241 callgsubr
          144.99000549316406 927.9799957275391 vstem
          337.97999572753906 1530 -42 callsubr
        </CharString>
        <CharString name="IJ_acutecomb">
          46 226 callsubr
          2322.979995727539 184 callgsubr
          1171.979995727539 51 callgsubr
          566.9900054931641 -4 rmoveto
          57 -51 97.00999450683594 59 157 137 62 104 rlinecurve
          -95 97 -278 -345.99000549316406 rlineto
          -606 -120 -42 callsubr
        </CharString>
        <CharString name="Iacute">
          -538 138 callgsubr
          144.99000549316406 604.9900054931641 51 callgsubr
          -22 callgsubr
          -123.99000549316406 -91 callsubr
          endchar
        </CharString>
        <CharString name="Ibreve">
          -538 1636.979995727539 112 hstem
          97 callsubr
          179 callgsubr
          97 callsubr
          -36 callgsubr
          196 -429 -91 callsubr
          endchar
        </CharString>
        <CharString name="Icircumflex">
          -538 138 callgsubr
          98 681 vstem
          98 -27 callgsubr
          219 -264.99000549316406 73.00999450683594 53 -205 194 callgsubr
          rlineto
          239.99000549316406 -122.99000549316406 -91 callsubr
          endchar
        </CharString>
        <CharString name="Idieresis">
          -538 1720.990005493164 35 callgsubr
          168 callsubr
          106 callsubr
          139 -40 callsubr
          -220.02000427246094 -289 -91 callsubr
          endchar
        </CharString>
        <CharString name="Idotaccent">
          -52 callsubr
        </CharString>
        <CharString name="Igrave">
          -538 138 callgsubr
          144.99000549316406 367.97999572753906 vstem
          252 callgsubr
          103 callsubr
          -94 -97.00999450683594 rlineto
          192 -372.99000549316406 -91 callsubr
          endchar
        </CharString>
        <CharString name="Imacron">
          -538 244 callgsubr
          144.99000549316406 529.9799957275391 vstem
          123 callgsubr
          183 callgsubr
          14 callgsubr
          155 callgsubr
          173 -331.99000549316406 -91 callsubr
          endchar
        </CharString>
        <CharString name="Iogonek">
          -538 264 callgsubr
          hstem
          -122 147.99000549316406 vstem
          -82 callsubr
          -322 rmoveto
          -51 -37 26 callsubr
          159 236 callsubr
          52 hvcurveto
          31 hlineto
          192.99000549316406 1530 rlineto
          -151 hlineto
          -192.99000549316406 -1528.009994506836 rlineto
          -89 -5 callgsubr
          -177.99000549316406 -100 -140 vvcurveto
          -58 60 callgsubr
          142 callsubr
          -50 callgsubr
          116 86.02000427246094 -17 callsubr
          38 45 vhcurveto
          -40 -7 callgsubr
          -49 -54 -12 callsubr
          -54.99000549316406 hhcurveto
          endchar
        </CharString>
        <CharString name="Itilde">
          -538 1692.990005493164 22 callgsubr
          69.97999572753906 764 hintmask 00000000
          hintmask 11100000
          69.97999572753906 10 callgsubr
          37 44 callsubr
          63 80 hhcurveto
          hintmask 10100000
          33 callgsubr
          33 hvcurveto
          107 callsubr
          70 rlineto
          -20 callgsubr
          -30 -44 -76 -80 hhcurveto
          hintmask 11100000
          -98 -35 148 -144 hhcurveto
          -106 79 callgsubr
          -83 -83 -42 hvcurveto
          268 -267.97999572753906 -91 callsubr
          endchar
        </CharString>
        <CharString name="J">
          -526 241 callgsubr
          -169 669.9799957275391 vstem
          349.97999572753906 1530 rmoveto
          -64 callsubr
          -193.99000549316406 -53 28 -68 rcurveline
          -2 callsubr
          -57 callsubr
        </CharString>
        <CharString name="Jcircumflex">
          -526 226 callsubr
          2322.979995727539 hstem
          -169 957.9900054931641 vstem
          38 callgsubr
          -27 callgsubr
          219 -264.99000549316406 240 callsubr
          95 callsubr
          231 callsubr
          169 callgsubr
          -122.99000549316406 rmoveto
          -64 callsubr
          -193.99000549316406 -53 28 -68 rcurveline
          -2 callsubr
          -57 callsubr
        </CharString>
        <CharString name="K">
          135 163 callsubr
          121 1161.990005493164 -55 callgsubr
          endchar
        </CharString>
        <CharString name="Kcommaaccent">
          135 -557.9900054931641 2088 hstem
          595.9799957275391 88 callgsubr
          -55 callgsubr
          -39 -903.9900054931641 rmoveto
          -94 -91.00999450683594 159 callgsubr
          -41 rlineto
          42 -17 30 -53 -61 callsubr
          vvcurveto
          45 callgsubr
          -39 -62 -49 -33 203 callsubr
          -20 -45 callgsubr
          -39 rlineto
          71 141 callsubr
          103 113 165 vvcurveto
          92 87 callsubr
          93 -76 25 vhcurveto
          endchar
        </CharString>
        <CharString name="L">
          237 callsubr
          121 758.9799957275391 vstem
          314 1530 81 callsubr
        </CharString>
        <CharString name="Lacute">
          237 callsubr
          121 758.9799957275391 vstem
          381.99000549316406 1655.990005493164 rmoveto
          57 -51 97 59 157 -50 callgsubr
          126 callgsubr
          104 rlinecurve
          -95.00999450683594 97 -278 -345.99000549316406 rlineto
          -68 -126 81 callsubr
        </CharString>
        <CharString name="Lcaron">
          237 callsubr
          863.9799957275391 168 callsubr
          vstem
          792.9900054931641 1024.979995727539 rmoveto
          4.0099945068359375 99 callgsubr
          81.02000427246094 142 callgsubr
          52 -133 -35 rcurveline
          -7 -25 20 -30 11.979995727539062 193 callsubr
          -5 -122 -34 -122 -32 -89 rrcurveto
          -478.99000549316406 505.02000427246094 81 callsubr
        </CharString>
        <CharString name="Lcommaaccent">
          237 callsubr
          494.97999572753906 145.00999450683594 vstem
          314 1530 -76 callsubr
          109 -1712 rmoveto
          42 -17 255 callgsubr
          -53 -61 callsubr
          vvcurveto
          45 callgsubr
          -39 -62 -5 callgsubr
          -33 vhcurveto
          -2 -20 -45 callgsubr
          -39 rlineto
          71 141 callsubr
          103.02000427246094 113 151 callsubr
          -94 -91.00999450683594 -4 -41 rlineto
          endchar
        </CharString>
        <CharString name="Ldot">
          -44 0 128 643.9900054931641 69 callsubr
          hstem
          795.9900054931641 210 vstem
          314 1530 -76 callsubr
          603 -538.0099945068359 rmoveto
          227 callgsubr
          -46.99000549316406 -58 -70 -1 hvcurveto
          -57 -1 40 -35 185 callsubr
          -32 callgsubr
          46 45 83 39 callsubr
        </CharString>
        <CharString name="Lslash">
          -132 0.9799957275390625 128.02000427246094 hstem
          -29 908.9799957275391 vstem
          286.97999572753906 127 rmoveto
          -71 callgsubr
          532.9900054931641 468.99000549316406 199 142 callgsubr
          98 -428.02000427246094 -185 -12 callgsubr
          758.9900054931641 176 callgsubr
          -104.02000427246094 -826.9799957275391 -238.97999572753906 88 callsubr
          28 -91 196.99000549316406 83 -75 -592.0200042724609 rlineto
          175 callsubr
          hlineto
          16 130 -593 -4 rlineto
          endchar
        </CharString>
        <CharString name="M">
          681 1430.990005493164 99 hstem
          1447.479995727539 225 callsubr
          vstem
          226 callgsubr
          1530 -65 callgsubr
        </CharString>
        <CharString name="N">
          292 163 callsubr
          165 callgsubr
          -33 callgsubr
          endchar
        </CharString>
        <CharString name="NULL">
          -1110 endchar
        </CharString>
        <CharString name="Nacute">
          292 138 callgsubr
          165 callgsubr
          vstem
          804.9900054931641 135 callsubr
          121 callsubr
          6 callgsubr
          -95 -39 callsubr
          rlineto
          -490.99000549316406 -123.99000549316406 -99 callgsubr
          endchar
        </CharString>
        <CharString name="Ncaron">
          292 221 callgsubr
          165 callgsubr
          vstem
          538.9900054931641 -25 callsubr
          321.99000549316406 113 callgsubr
          -225 -402.99000549316406 -99 callgsubr
          endchar
        </CharString>
        <CharString name="Ncommaaccent">
          292 -560 2090 hstem
          596.9900054931641 88 callgsubr
          -33 callgsubr
          210.99000549316406 -1713.990005493164 rmoveto
          -83 callsubr
          -76 25 vhcurveto
          210 callgsubr
          -91 -45 callsubr
          -41 rlineto
          endchar
        </CharString>
        <CharString name="Ntilde">
          292 1692.990005493164 22 callgsubr
          165 callgsubr
          hintmask 00000000
          hintmask 11100000
          497.99000549316406 1797.979995727539 rmoveto
          -79 callgsubr
          78 callgsubr
          rlineto
          -56 callgsubr
          37 43 63 80 hhcurveto
          hintmask 10100000
          32 callsubr
          hintmask 11100000
          -98 105 callsubr
          -184 -267.97999572753906 -99 callgsubr
          endchar
        </CharString>
        <CharString name="O">
          -68 callgsubr
          -38 callsubr
          612.9900054931641 -105 callgsubr
        </CharString>
        <CharString name="OE">
          1015 -17 115.97000122070312 -98.97000122070312 -86 callgsubr
          -103.00999450683594 -50 callsubr
          245 callgsubr
          hintmask 01110100
          2051.990005493164 202 callsubr
          -7 callsubr
          -44.02000427246094 -349 rlineto
          hintmask 10101100
          215 -61.99000549316406 -142 151 -235.99000549316406 hhcurveto
          -407 -309 -403 -531 9.990005493164062 hvcurveto
          -357.99000549316406 7 171 -271.99000549316406 320 hhcurveto
          229.99000549316406 188 122 callgsubr
          200 120 hvcurveto
          hintmask 01110100
          -39 -308 246 callgsubr
          -736.9900054931641 -13 -61 callgsubr
          -11 callsubr
          479.00999450683594 -11 -47 callgsubr
          127 -473.99000549316406 -6 -76 callgsubr
          579.0099945068359 614.0099945068359 -7 rlineto
          hintmask 10101100
          -1418 -1311.009994506836 rmoveto
          -233 -127.02000427246094 178.02000427246094 366 -5 hvcurveto
          418 -6 222 366 309 hhcurveto
          240 114 -187 -351.99000549316406 6 hvcurveto
          -429 7 -216 -360.02000427246094 -310.99000549316406 hhcurveto
          endchar
        </CharString>
        <CharString name="Oacute">
          -68 callgsubr
          780.9799957275391 135 callsubr
          97.00999450683594 27 callgsubr
          -95.00999450683594 64 callsubr
          -669 -1041 -105 callgsubr
        </CharString>
        <CharString name="Obreve">
          -58 callsubr
          -23 callgsubr
          112 245 callgsubr
          276.02000427246094 104 426 99 -31.010009765625 156.99000549316406 hintmask 11111010
          544.9900054931641 115 callsubr
          208 vhcurveto
          hintmask 11111100
          127 callgsubr
          181 callsubr
          16.020004272460938 hvcurveto
          144 callsubr
          -15.020004272460938 150 callgsubr
          191 callgsubr
          106 87 callgsubr
          -11.020004272460938 hvcurveto
          -47 callsubr
          7 callgsubr
          -103 hlineto
          hintmask 11111010
          -1 -6 0 -9 -6 vvcurveto
          -433.00999450683594 -1346 -105 callgsubr
        </CharString>
        <CharString name="Ocircumflex">
          -68 callgsubr
          501.99000549316406 1652.979995727539 rmoveto
          59 -58.99000549316406 330 269.99000549316406 -57 callgsubr
          -340 110 callgsubr
          rlineto
          -390 -1040 -105 callgsubr
        </CharString>
        <CharString name="Odieresis">
          -58 callsubr
          174.00001525878906 213.99000549316406 245 callgsubr
          273.00999450683594 199 callgsubr
          -20.990005493164062 156.99000549316406 hintmask 11111010
          541.9799957275391 -26 callsubr
          -50 -61 callsubr
          -51 -65 -45 callsubr
          hvcurveto
          hintmask 11111100
          419 hmoveto
          -58 -0.9799957275390625 -35 callgsubr
          116 callsubr
          4 hvcurveto
          55 4.0099945068359375 16 callsubr
          -1 hvcurveto
          -849 -1206 rmoveto
          -357.99000549316406 7 169 -271.99000549316406 317.00999450683594 hhcurveto
          hintmask 11111010
          413.99000549316406 290.02000427246094 411.99000549316406 520.9900054931641 86 callsubr
          346.00999450683594 -6 -159.99000549316406 285 -321 hhcurveto
          hintmask 11111100
          -53 callsubr
          hintmask 11111010
          1031 275 rmoveto
          -429 29 callgsubr
          -360.02000427246094 -307.02000427246094 hhcurveto
          -227 -128 178.02000427246094 366 -5 hvcurveto
          418 -6 220 366 306.02000427246094 hhcurveto
          234 -82 callsubr
          -187 -351.99000549316406 6 hvcurveto
          endchar
        </CharString>
        <CharString name="Ograve">
          -68 callgsubr
          549.9900054931641 71 callsubr
          -42 callgsubr
          -104 152 -140 97.00999450683594 -58 56 41 callsubr
          -438.00999450683594 -1290 -105 callgsubr
        </CharString>
        <CharString name="Ohungarumlaut">
          -68 callgsubr
          971 238 callsubr
          57 -38 callgsubr
          110 64 127 callgsubr
          165 58 106 rlinecurve
          -102.99000549316406 -23 callgsubr
          -312 98 callsubr
          -101 89 -312 -375.00999450683594 rlineto
          -446.02000427246094 -1006 -105 callgsubr
        </CharString>
        <CharString name="Omacron">
          -58 callsubr
          -2 callsubr
          43 callsubr
          -77 callsubr
          vstem
          569 14 callsubr
          -457.02000427246094 -1249 -105 callgsubr
        </CharString>
        <CharString name="Oslash">
          22 callsubr
          1328 69 callgsubr
          hstem
          -77 callsubr
          vstem
          1153.990005493164 1388.990005493164 -90 callsubr
        </CharString>
        <CharString name="Oslashacute">
          22 callsubr
          1328 69 callgsubr
          hstem
          -77 callsubr
          vstem
          1113.990005493164 -10 callsubr
          40 -513.9900054931641 -90 callsubr
        </CharString>
        <CharString name="Otilde">
          -58 callsubr
          146.00001525878906 22 callgsubr
          -77 callsubr
          hintmask 00000000
          hintmask 11111100
          473.99000549316406 10 callgsubr
          78 callsubr
          43 63 80 hhcurveto
          hintmask 11101100
          -47 callsubr
          111 23 -145 154 hhcurveto
          205 callsubr
          110 80 94 172 callgsubr
          hvcurveto
          140 callsubr
          70 rlineto
          -20 callgsubr
          -30 -44 -76 -80 hhcurveto
          hintmask 11111100
          -98.02000427246094 105 callsubr
          hintmask 11101100
          -362 -1185 -105 callgsubr
        </CharString>
        <CharString name="P">
          229 callsubr
          hstem
          1013.9799957275391 152 vstem
          314 1530 -70 callsubr
        </CharString>
        <CharString name="Q">
          -358.99000549316406 168 callsubr
          208 206 callsubr
          1328 -50 callsubr
          hstem
          -77 callsubr
          vstem
          686.9799957275391 -12 rmoveto
          370.00999450683594 50.99000549316406 251 391 -8.009994506835938 485.99000549316406 rrcurveto
          346.00999450683594 -6 -159.99000549316406 285 -321 hhcurveto
          -53 callsubr
          7 -348 160 -267 298.99000549316406 -28 callgsubr
          rrcurveto
          -232 -28 174 -111 188 hhcurveto
          112.00999450683594 139 -11 callgsubr
          36 -24 callsubr
          hvcurveto
          117 vlineto
          -24 -60.99000549316406 45 callgsubr
          -11 -60.99000549316406 hhcurveto
          -148 -163 29 179 -1 hvcurveto
          -418 654.9900054931641 rmoveto
          418 -6 220 366 306.02000427246094 hhcurveto
          234 -82 callsubr
          -187 -351.99000549316406 6 hvcurveto
          -429 29 callgsubr
          -360.02000427246094 -307.02000427246094 hhcurveto
          -227 -128 178.02000427246094 366 -5 hvcurveto
          endchar
        </CharString>
        <CharString name="R">
          83 callgsubr
          hstem
          1005.9900054931641 163 vstem
          798.9900054931641 257 callsubr
          -101 callsubr
          endchar
        </CharString>
        <CharString name="Racute">
          83 callgsubr
          hstem
          1005.9900054931641 163 vstem
          1078.990005493164 -10 callsubr
          -280 -1224.990005493164 -101 callsubr
          endchar
        </CharString>
        <CharString name="Rcaron">
          83 callgsubr
          67.989990234375 116 hstem
          1005.9900054931641 163 vstem
          812.9900054931641 1613.990005493164 rmoveto
          321.99000549316406 -53 callgsubr
          179 callsubr
          -14 -936 -101 callsubr
          endchar
        </CharString>
        <CharString name="Rcommaaccent">
          83 callgsubr
          hstem
          578.9900054931641 88 callgsubr
          282.00999450683594 163 vstem
          798.9900054931641 257 callsubr
          -101 callsubr
          70 callsubr
          -828.9900054931641 rmoveto
          -94 -91 -45 callsubr
          -41 rlineto
          -83 callsubr
          -75.99000549316406 25 vhcurveto
          endchar
        </CharString>
        <CharString name="S">
          -15 callgsubr
          70.97999572753906 175 callgsubr
          -102 callgsubr
          endchar
        </CharString>
        <CharString name="Sacute">
          -15 callgsubr
          628.9799957275391 -30 callgsubr
          -558 -1458 -102 callgsubr
          endchar
        </CharString>
        <CharString name="Scaron">
          -20 callsubr
          66.989990234375 116 hstem
          186.97999572753906 130 callsubr
          237 callgsubr
          362.99000549316406 -25 callsubr
          260 callsubr
          24 callsubr
          -244 270 -81 callgsubr
          -81 callgsubr
          rlineto
          -292 -1736.990005493164 -102 callgsubr
          endchar
        </CharString>
        <CharString name="Scedilla">
          -66 -464.99000549316406 108 callgsubr
          324.00999450683594 116.97999572753906 1329.000015258789 116 hstemhm
          186.97999572753906 -29 callsubr
          43.00999450683594 131 253 156.99000549316406 hintmask 11110100
          654.9900054931641 1431 rmoveto
          -95 callgsubr
          3 callsubr
          vhcurveto
          79 callsubr
          -123 rlineto
          hintmask 11111100
          41.99000549316406 -35 144.02000427246094 -47.97999572753906 157.99000549316406 -5 rrcurveto
          182 callgsubr
          2 -80 callsubr
          -42 vvcurveto
          -142.99000549316406 -70 -38 callgsubr
          -100 87 callsubr
          -28.020004272460938 9.020004272460938 -47 callgsubr
          -17 vhcurveto
          -56 callsubr
          -115 rlineto
          -16 22 71 -13 53 hhcurveto
          -35 callsubr
          120.02000427246094 69 215 71 -11.020004272460938 -17 callsubr
          -18 42 hvcurveto
          257 23 187 144 -5 256 -48 callsubr
          208 -165 111 -142 93 rrcurveto
          hintmask 11110100
          -162 107.00999450683594 -116 -61 callgsubr
          5 182 rrcurveto
          -2 callsubr
          6 188 -21 callgsubr
          123 hhcurveto
          endchar
        </CharString>
        <CharString name="Scircumflex">
          -15 callgsubr
          349.97999572753906 1652.979995727539 rmoveto
          59 49 callsubr
          249 callgsubr
          147 callsubr
          -204.99000549316406 348 rlineto
          -136 231 callsubr
          -279 -1456.990005493164 -102 callgsubr
          endchar
        </CharString>
        <CharString name="Scommaaccent">
          -20 callsubr
          hstemhm
          186.97999572753906 -29 callsubr
          209 callsubr
          88 callgsubr
          251.00999450683594 156.99000549316406 hintmask 11101000
          70.97999572753906 175 callgsubr
          -102 callgsubr
          hintmask 11111000
          226 -379.97999572753906 rmoveto
          42 -17 30 -55 callsubr
          -94 -91 159 callgsubr
          -41 rlineto
          endchar
        </CharString>
        <CharString name="T">
          161 callgsubr
          hstem
          137.99000549316406 1060.979995727539 vstem
          588.9799957275391 1419 -73 callsubr
          endchar
        </CharString>
        <CharString name="Tbar">
          12 732.9900054931641 99.97999572753906 581.5200042724609 115.5 hstem
          137.99000549316406 1060.979995727539 vstem
          1181.979995727539 202 callsubr
          17 -50 callsubr
          rlineto
          -1043.990005493164 hlineto
          -17 -120.00999450683594 450.99000549316406 9.009994506835938 -73.99000549316406 -586.0200042724609 rlineto
          -283 hlineto
          -13 -99.99000549316406 rlineto
          283 hlineto
          -92 -733 rlineto
          150 hlineto
          92 733 rlineto
          309 hlineto
          13 99.99000549316406 rlineto
          -309 hlineto
          73.99000549316406 586.0200042724609 443 -63 callgsubr
          rlineto
          endchar
        </CharString>
        <CharString name="Tcaron">
          161 callgsubr
          83.989990234375 116 hstem
          137.99000549316406 1060.979995727539 vstem
          409.99000549316406 -25 callsubr
          322 24 callsubr
          -244 270 -81 callgsubr
          -81 callgsubr
          rlineto
          179 -513.9900054931641 -73 callsubr
          endchar
        </CharString>
        <CharString name="Thorn">
          85 285.97999572753906 118 763.010009765625 43 callsubr
          973.9799957275391 152 vstem
          1125.990005493164 886.9900054931641 rmoveto
          260 120 callsubr
          -154.99000549316406 134 -292 hhcurveto
          -82 54 callgsubr
          -10 -5 227 callgsubr
          hvcurveto
          33 264 rlineto
          -150 92 callgsubr
          150 hlineto
          37 296.97999572753906 rlineto
          -4 190 callgsubr
          65 -7 106 hhcurveto
          367 254 230 371 -5 hvcurveto
          -152 -13 rmoveto
          -4 -296 -154 -170.99000549316406 -300.99000549316406 -3 rrcurveto
          -71 -81 -40 callgsubr
          6.9799957275390625 -39 hvcurveto
          92 729.0099945068359 rlineto
          8 55 -59 callsubr
          11 51 hhcurveto
          231.02000427246094 93 -114 -179.02000427246094 -2 hvcurveto
          endchar
        </CharString>
        <CharString name="U">
          12 callgsubr
          165.99000549316406 593 -107 callsubr
        </CharString>
        <CharString name="Uacute">
          12 callgsubr
          762 146 callsubr
          62 104 rlinecurve
          -94.99000549316406 64 callsubr
          -596 -1060.990005493164 -107 callsubr
        </CharString>
        <CharString name="Ubreve">
          250 -17 -41 callsubr
          1531 112 48 callgsubr
          217.989990234375 104 426 99 vstem
          525.9900054931641 -36 callgsubr
          -360 -1366 -107 callsubr
        </CharString>
        <CharString name="Ucircumflex">
          12 callgsubr
          482.97999572753906 1652.979995727539 rmoveto
          59 49 callsubr
          330.02000427246094 108 callsubr
          219 -264.99000549316406 119 callgsubr
          -204.99000549316406 348 rlineto
          -136 231 callsubr
          -316.97999572753906 -1059.990005493164 -107 callsubr
        </CharString>
        <CharString name="Udieresis">
          250 -17 -41 callsubr
          1615.010009765625 213.99000549316406 48 callgsubr
          215 106 callsubr
          523 -40 callsubr
          -776 -1226 -107 callsubr
        </CharString>
        <CharString name="Ugrave">
          12 callgsubr
          530.9799957275391 71 callsubr
          126 callgsubr
          -104 151.99000549316406 -140 97.00999450683594 -58 56 41 callsubr
          -364.99000549316406 -1309.990005493164 -107 callsubr
        </CharString>
        <CharString name="Uhungarumlaut">
          12 callgsubr
          951.9900054931641 238 callsubr
          57 -38 callgsubr
          110 64 190 165 58 106 rlinecurve
          88 callsubr
          -23 callgsubr
          -311.99000549316406 98 callsubr
          -101.00999450683594 89 -311.99000549316406 -375.00999450683594 rlineto
          -373 -1025.990005493164 -107 callsubr
        </CharString>
        <CharString name="Umacron">
          250 -17 -41 callsubr
          1642 113.99000549316406 84 callsubr
          549.9900054931641 183 callgsubr
          14 callgsubr
          155 callgsubr
          -384 -1268.990005493164 -107 callsubr
        </CharString>
        <CharString name="Uogonek">
          250 -434.99000549316406 -84 callsubr
          305 -41 callsubr
          48 callgsubr
          155 -36 callsubr
          vstem
          1169 1530 rmoveto
          -112 -890 rlineto
          -389.02000427246094 -50 -139 -145 -245 hhcurveto
          -209.99000549316406 -101 121 201.02000427246094 -4 hvcurveto
          -1 57 -29 callgsubr
          -42 callgsubr
          9.020004272460938 72.00999450683594 115 911.0099945068359 rcurveline
          -150 hlineto
          -119 -937 -7 -59 -6 -60 1 -52 rlinecurve
          -276.00999450683594 5 151 -162.97999572753906 292 hhcurveto
          169 callsubr
          35.97999572753906 2 5 35 hvcurveto
          -92 -56.02000427246094 -156 39 callgsubr
          79 callgsubr
          vvcurveto
          -59 51 54 callgsubr
          137 11 callgsubr
          -49 -54.99000549316406 -21.020004272460938 -55 hhcurveto
          -51 -36 28.020004272460938 52 64 119.00999450683594 110 96 callgsubr
          82.97999572753906 hvcurveto
          206 69 123 186 46 357.00999450683594 37 callgsubr
          rcurveline
          -146.99000549316406 hlineto
          endchar
        </CharString>
        <CharString name="Uring">
          250 -17 -41 callsubr
          1477 82 351 84 48 callgsubr
          210.989990234375 107 396.010009765625 77 callsubr
          vstem
          518.9799957275391 1827.979995727539 rmoveto
          -154.99000549316406 224 callsubr
          -17 callgsubr
          205 callgsubr
          206 callgsubr
          67 callsubr
          80.02000427246094 186 157 -104 94 -166 -158 254 callgsubr
          -83 -189 vhcurveto
          503.00999450683594 34 rmoveto
          -157.99000549316406 -106 -22 callgsubr
          -112 123 callsubr
          -71 208 callsubr
          -23 callgsubr
          150 69 callgsubr
          43 103.02000427246094 205 callsubr
          -71 callgsubr
          -61.99000549316406 -92.02000427246094 vhcurveto
          -856 -1268.990005493164 -107 callsubr
        </CharString>
        <CharString name="Utilde">
          250 -17 -41 callsubr
          1587.010009765625 22 callgsubr
          -87 callsubr
          154 hintmask 00000000
          hintmask 11110000
          454.97999572753906 10 callgsubr
          78 callsubr
          43 63 80 hhcurveto
          hintmask 11010000
          33 callgsubr
          33 hvcurveto
          140 callsubr
          70 rlineto
          -20 callgsubr
          -30 -43.99000549316406 -76 -80 hhcurveto
          hintmask 11110000
          40 callgsubr
          hintmask 11010000
          -288.99000549316406 -1204.990005493164 -107 callsubr
        </CharString>
        <CharString name="V">
          59 -4.9900054931640625 1534.990005493164 hstem
          -87 callsubr
          1109.990005493164 vstem
          -87 callsubr
          1530 rmoveto
          254 -1534.990005493164 161.02000427246094 1 694.9900054931641 1533.990005493164 rlineto
          -159.99000549316406 hlineto
          -478 -1096 -115 -282.00999450683594 -22 callgsubr
          282.00999450683594 -168 1096 176 callgsubr
          endchar
        </CharString>
        <CharString name="W">
          660 -9.990005493164062 1539.990005493164 233 callgsubr
          1718 vstem
          1715 1530 -97 callsubr
        </CharString>
        <CharString name="Wacute">
          53 callsubr
          1367 71 callsubr
          -95 -39 callsubr
          57 -51 97 27 callgsubr
          348 -372.99000549316406 -97 callsubr
        </CharString>
        <CharString name="Wcircumflex">
          53 callsubr
          1103.990005493164 204 callsubr
          219 -264.99000549316406 73.00999450683594 53 -205 194 callgsubr
          58.99000549316406 49 callsubr
          330.00999450683594 108 callsubr
          rlineto
          611 -333.99000549316406 -97 callsubr
        </CharString>
        <CharString name="Wdieresis">
          660 1720.990005493164 101 callsubr
          755.9900054931641 209 callgsubr
          253 callsubr
          -67 callsubr
          hintmask 00000000
          hintmask 11100000
          840.9900054931641 1721 rmoveto
          75 callgsubr
          2 158 callsubr
          40 -59.99000549316406 hhcurveto
          -38 callgsubr
          -61 callsubr
          -51 -65 -4 hvcurveto
          -57 -3 39 -41 49 hhcurveto
          420 hmoveto
          62 51 83 callsubr
          4 16 callsubr
          -18 callsubr
          hvcurveto
          -58 -1 -35 callgsubr
          -40 49 hhcurveto
          454 -191 -97 callsubr
        </CharString>
        <CharString name="Wgrave">
          53 callsubr
          1075 1600.979995727539 rmoveto
          -17 callsubr
          109 callsubr
          63 callsubr
          62 -104 151.99000549316406 -140 121 callsubr
          -58 rlinecurve
          640 -70.99000549316406 -97 callsubr
        </CharString>
        <CharString name="X">
          37 163 callsubr
          -35 1246.979995727539 vstem
          519.9900054931641 787.9900054931641 rmoveto
          -554.9900054931641 -787.9900054931641 rlineto
          182.99000549316406 hlineto
          430 655.9900054931641 274 -655.9900054931641 rlineto
          172.02000427246094 hlineto
          -348.02000427246094 757.9900054931641 536 772.0099945068359 rlineto
          -170 hlineto
          -424 -635 -255 635 rlineto
          -165.99000549316406 hlineto
          322.99000549316406 -742.0099945068359 rlineto
          endchar
        </CharString>
        <CharString name="Y">
          -27 163 callsubr
          168 callgsubr
          1108 vstem
          477.97999572753906 584.9900054931641 -93 callgsubr
        </CharString>
        <CharString name="Yacute">
          105 callgsubr
          628.9799957275391 -30 callgsubr
          -151 -1069 -93 callgsubr
        </CharString>
        <CharString name="Ycircumflex">
          105 callgsubr
          349.97999572753906 1652.979995727539 rmoveto
          59 49 callsubr
          249 callgsubr
          147 callsubr
          -204.99000549316406 348 rlineto
          -136 231 callsubr
          128 -1067.990005493164 -93 callgsubr
        </CharString>
        <CharString name="Ydieresis">
          -27 1720.990005493164 35 callgsubr
          390.97999572753906 199 callgsubr
          vstem
          390.97999572753906 -26 callsubr
          -80 callsubr
          -56 -51 -65 -45 callsubr
          hvcurveto
          419 hmoveto
          -58 -1 38 -40 49 hhcurveto
          -42 callgsubr
          51 85 callgsubr
          -60 callgsubr
          16 callsubr
          -1 hvcurveto
          -332 -1234 -93 callgsubr
        </CharString>
        <CharString name="Ygrave">
          105 callgsubr
          397.99000549316406 71 callsubr
          62 -104 152 -140 121 callsubr
          -58 -17 callsubr
          41 callsubr
          80 -1317.990005493164 -93 callgsubr
        </CharString>
        <CharString name="Z">
          47 0 6 callsubr
          232 callsubr
          92 callsubr
          69.97999572753906 -85 callgsubr
        </CharString>
        <CharString name="Zacute">
          47 0 6 callsubr
          232 callsubr
          695.9900054931641 135 callsubr
          97 59 157 136.99000549316406 62 220 callsubr
          -681 -1584 -85 callgsubr
        </CharString>
        <CharString name="Zcaron">
          47 0 6 callsubr
          83.97999572753906 116 232 callsubr
          430 1932.979995727539 rmoveto
          238 -319 rlineto
          134.97999572753906 hlineto
          260 callsubr
          113 callgsubr
          -415 -1863 -85 callgsubr
        </CharString>
        <CharString name="Zdotaccent">
          47 0 6 callsubr
          176.97999572753906 213 hstem
          666.9900054931641 -2 callsubr
          vstem
          666.9900054931641 36 callgsubr
          -4 39 -60 callsubr
          -56.02000427246094 34 callgsubr
          -652 -1735 -85 callgsubr
        </CharString>
        <CharString name="a">
          20 -15.990005493164062 -80 callgsubr
          136 callgsubr
          927.9900054931641 1119.990005493164 -98 callsubr
        </CharString>
        <CharString name="aacute">
          20 -15.990005493164062 -80 callgsubr
          136 callgsubr
          1039.990005493164 1601.990005493164 rmoveto
          -115 104 -308.02000427246094 -400 192 callgsubr
          -55 122 73.02000427246094 223 callgsubr
          46 callgsubr
          rlinecurve
          -112 -482 -98 callsubr
        </CharString>
        <CharString name="abreve">
          20 -15.990005493164062 -80 callgsubr
          151 112 162 callgsubr
          180.989990234375 104 426.010009765625 99 vstem
          1047 1649.990005493164 rmoveto
          -101 hlineto
          -10 callgsubr
          -15.020004272460938 107 callsubr
          -146.99000549316406 -148 hhcurveto
          -135 191 callgsubr
          205 callsubr
          95 -11 hvcurveto
          -2 10 -1 12 -40 callgsubr
          vvcurveto
          -103 hlineto
          -1 -6 0 -9.020004272460938 -5.9799957275390625 vvcurveto
          -160 88 -162 208 190 127.02000427246094 165 252 callgsubr
          16 vhcurveto
          2 11.020004272460938 95 callgsubr
          11 -18 callsubr
          10 rrcurveto
          -333 -494 -103 callgsubr
        </CharString>
        <CharString name="acircumflex">
          20 -15.990005493164062 -80 callgsubr
          136 callgsubr
          788.9900054931641 1576 rmoveto
          143 callsubr
          -294.00999450683594 -32 callgsubr
          160 callgsubr
          127 callsubr
          rlineto
          -75 -420 -103 callgsubr
        </CharString>
        <CharString name="acute">
          -551 1248.990005493164 455 hstem
          57.99000549316406 422.99000549316406 vstem
          58 184 callsubr
          63 74 callgsubr
          38 66.00999450683594 rlinecurve
          -115 200 callsubr
          endchar
        </CharString>
        <CharString name="acute.cap">
          -584 1602.990005493164 397 hstem
          81.97999572753906 373 vstem
          81.97999572753906 -30 callgsubr
          endchar
        </CharString>
        <CharString name="adieresis">
          20 -15.990005493164062 -80 callgsubr
          256 210 callsubr
          162 callgsubr
          187 106 callgsubr
          507.99000549316406 1411.990005493164 rmoveto
          62 51 52 74 callsubr
          -58 hhcurveto
          -57 259 callgsubr
          -50 164 callgsubr
          -57 -4 40 -41 50 hhcurveto
          447 213 rmoveto
          -57 -52 -50 164 callgsubr
          -57 -45 callsubr
          40 -41 50 hhcurveto
          62 51 52 -79 callgsubr
          -60 callgsubr
          201 callgsubr
          -36 40 -58 hhcurveto
          -240.99000549316406 -469 -103 callgsubr
        </CharString>
        <CharString name="ae">
          32 callgsubr
          1088.979995727539 167 callgsubr
          -92 callgsubr
        </CharString>
        <CharString name="aeacute">
          32 callgsubr
          1241.990005493164 1600 rmoveto
          -115 -18 callgsubr
          -77 callgsubr
          -153 -1498.009994506836 -92 callgsubr
        </CharString>
        <CharString name="agrave">
          20 -15.990005493164062 -80 callgsubr
          136 callgsubr
          698.9799957275391 1250.979995727539 rmoveto
          65 55 97 callgsubr
          397 68 callgsubr
          -104 58.02000427246094 -99 190 254 callgsubr
          96 callgsubr
          -65 rlinecurve
          229 -130.99000549316406 -98 callsubr
        </CharString>
        <CharString name="amacron">
          20 -15.990005493164062 -80 callgsubr
          280 113.99000549316406 136 callgsubr
          956.9900054931641 1549.990005493164 rmoveto
          155 callgsubr
          -45 callsubr
          -113.99000549316406 rlineto
          509.00999450683594 hlineto
          5 -82 callsubr
          rlineto
          -29 -430 -98 callsubr
        </CharString>
        <CharString name="ampersand">
          424 -20 102.99000549316406 -99.99000549316406 38 callgsubr
          602.989990234375 112 639 102.00999450683594 hstemhm
          168 callgsubr
          155 83.010009765625 -50 callgsubr
          469.99998474121094 142 38 138 hintmask 01111110
          1442.979995727539 804.9900054931641 rmoveto
          hintmask 01111111
          -314 1 rlineto
          -13 callgsubr
          -49 -14.009994506835938 -13 callsubr
          -13 callsubr
          hvcurveto
          -63 callgsubr
          -105 22.020004272460938 12 60 callgsubr
          -47 callgsubr
          51 1 rlinecurve
          12 -35 11 -46 -60 vvcurveto
          -139.99000549316406 -5 callgsubr
          -112 -81 -78 vhcurveto
          -149.02000427246094 137 -133 257 callgsubr
          207 callsubr
          194.99000549316406 rrcurveto
          hintmask 01111110
          228.99000549316406 123 258 121.02000427246094 262 vvcurveto
          135.99000549316406 -110 166 -228 -239 -172 -169 -241 -112 44 -146 51 -107.99000549316406 vhcurveto
          -178 -99 -155 -113.99000549316406 -193 vvcurveto
          -278 249.02000427246094 -103.99000549316406 268 138 121 27.990005493164062 53 99 vhcurveto
          hintmask 10111111
          -58.02000427246094 -32 callgsubr
          108 110 callsubr
          81 hhcurveto
          36 56 1 13 54 hvcurveto
          92 callsubr
          93 -28 callgsubr
          -45 callsubr
          -25 -1 -13 callsubr
          1 rlinecurve
          88 callsubr
          -47 callsubr
          -80 17.979995727539062 -71 46.02000427246094 rrcurveto
          110 103 192 callgsubr
          150 188 vvcurveto
          45 -6 35 -8 28 vhcurveto
          181 hlineto
          hintmask 01111110
          76 callsubr
          111 rlineto
          -962.9900054931641 336 rmoveto
          168.02000427246094 105 135.99000549316406 164 140 -45 callgsubr
          -98 -118.00999450683594 -187 -193.99000549316406 -103 -202.02000427246094 -106 vhcurveto
          -34 69 -40 190 callsubr
          122 callgsubr
          vvcurveto
          -220 -772 rmoveto
          135 100 167 callsubr
          -59 callsubr
          79.02000427246094 vhcurveto
          105 -181 102.02000427246094 -162 192 -185.02000427246094 rrcurveto
          -35.99000549316406 -73.02000427246094 -87 -19 -94 hhcurveto
          -204 -170.99000549316406 82 196 hvcurveto
          endchar
        </CharString>
        <CharString name="aogonek">
          42 -434.99000549316406 -84 callsubr
          306.00999450683594 -80 callgsubr
          hstem
          93 -87 callsubr
          255.989990234375 148 vstem
          738.9799957275391 -322 rmoveto
          -51 -36.99000549316406 26 callsubr
          -87 callsubr
          -12 callgsubr
          79.00999450683594 52 hvcurveto
          12 hlineto
          157 -21 callsubr
          -113 -36 rlineto
          -6 callgsubr
          -84 17 -72 callsubr
          178 callsubr
          -257 -23 callsubr
          -173.97000122070312 217 165.99000549316406 134 115.97000122070312 105 -32 callgsubr
          44 callgsubr
          vlineto
          -19 -199 rlineto
          -88 -80 callsubr
          -174 -99 -140 vvcurveto
          -59 50 54 callgsubr
          137 135 callgsubr
          45 vhcurveto
          -40 -7 callgsubr
          -5 callgsubr
          -55 -21.020004272460938 -54 hhcurveto
          -302.97999572753906 421.99000549316406 rmoveto
          -123 140 callsubr
          111 222 272 153 341.02000427246094 302 65 69 -15.020004272460938 -23 51 hvcurveto
          -64 -450.99000549316406 -12 callsubr
          -185 rlineto
          -104.02000427246094 -58.97999572753906 -140 -168 -168 hhcurveto
          endchar
        </CharString>
        <CharString name="approxequal">
          -47 305.99000549316406 127 46.989990234375 108 callgsubr
          146.00999450683594 127 47 126.00999450683594 hstemhm
          -79 callgsubr
          964.9900054931641 hintmask 01011000
          69 callgsubr
          855 rmoveto
          50 callgsubr
          111 callgsubr
          rlineto
          81 53 76 47 89.00999450683594 hhcurveto
          hintmask 01111000
          231 callgsubr
          107.00999450683594 93 28 hvcurveto
          -56 57 rlineto
          -64 -41 -68.02000427246094 -66 39 callgsubr
          hhcurveto
          hintmask 01011000
          -122 -70 206 callgsubr
          -152 hhcurveto
          -154 -121 -118 -79 142 callgsubr
          hvcurveto
          -53 -446.00999450683594 rmoveto
          55 -57 rlineto
          81 227 callsubr
          76 47 89 hhcurveto
          hintmask 11011000
          231 callgsubr
          107 93 28 hvcurveto
          -61 callsubr
          57 rlineto
          -64 -41 -68 140 callsubr
          -101 hhcurveto
          hintmask 01011000
          -122 -70 173 -152 hhcurveto
          -153.99000549316406 -121.02000427246094 174 callsubr
          139 callsubr
          142 callgsubr
          hvcurveto
          endchar
        </CharString>
        <CharString name="aring">
          20 -15.990005493164062 -80 callgsubr
          104 83 355.97999572753906 84 162 callgsubr
          220.989990234375 107 396.010009765625 77 callsubr
          vstem
          734.9900054931641 1259.990005493164 rmoveto
          173 160 87 186 158 -104 92 -166 -157.97999572753906 254 callgsubr
          -88 -188 -154.99000549316406 101 -92 178 hvcurveto
          51 438.99000549316406 rmoveto
          106 -71 callgsubr
          -60.99000549316406 -92 -157 -106 -46 -112 123 callsubr
          -71 68 167 callsubr
          61 callgsubr
          69 callgsubr
          46.97999572753906 103 hvcurveto
          -13 callgsubr
          -542.9900054931641 -103 callgsubr
        </CharString>
        <CharString name="asciicircum">
          248 509.99000549316406 1020 hstem
          185.99000549316406 937.9799957275391 vstem
          704 1530 rmoveto
          -518 -1020 rlineto
          212 callgsubr
          hlineto
          446.02000427246094 874.9900054931641 226 -874.9900054931641 rlineto
          130.99000549316406 hlineto
          -267 1020 rlineto
          -152.99000549316406 hlineto
          endchar
        </CharString>
        <CharString name="asciitilde">
          27 740.9799957275391 127 47 126.00999450683594 hstemhm
          139.97999572753906 912.0200042724609 hintmask 01100000
          139.97999572753906 843.9799957275391 rmoveto
          55 -57 rlineto
          81 53 76 47 89 hhcurveto
          hintmask 11100000
          121 70 -174 152.99000549316406 hhcurveto
          151 116.02000427246094 107 93 28 hvcurveto
          -56.02000427246094 57 rlineto
          -64 -41 -68 140 callsubr
          -101 hhcurveto
          hintmask 01100000
          -122 -70 206 callgsubr
          -151.99000549316406 hhcurveto
          -154 -121 -118 139 callsubr
          -27.009994506835938 hvcurveto
          endchar
        </CharString>
        <CharString name="asterisk">
          256 646.9799957275391 1005.9900054931641 hstemhm
          695.9900054931641 65.5 -57.52000427246094 64.02000427246094 hintmask 10100000
          239.97999572753906 960 rmoveto
          59 -129 rlineto
          hintmask 11000000
          269 169.99000549316406 128 95 -36 -146 -52 -302 151 -1 7 303 -63 callgsubr
          146 105 -97 227 -172 88 126.02000427246094 -254 135 -129 58 145 58 284 212 callgsubr
          -59 128 rlineto
          hintmask 10100000
          -267 -171.99000549316406 -128.97999572753906 -95.00999450683594 78 callsubr
          150 51 303 rlineto
          60 callsubr
          hlineto
          -7 -303 6 -150 -109 95.00999450683594 -233 176 -87 -127 259.99000549316406 -139.02000427246094 134 -58 -146 -57 -286 -129.99000549316406 rlineto
          endchar
        </CharString>
        <CharString name="at">
          858 -439.99000549316406 106.99000549316406 337.99000549316406 117 -114 211 callsubr
          853.989990234375 97.00999450683594 352 101 hstemhm
          121 117 304.97999572753906 137.99000549316406 498.02000427246094 135 437 117.99000549316406 hintmask 1101111110000000
          1188.990005493164 1544.990005493164 rmoveto
          -589.9900054931641 -478 -448 -724.0099945068359 -516.9700012207031 59 callsubr
          -296 449 174 162 47.99000549316406 208 callsubr
          90.00999450683594 hvcurveto
          139 callgsubr
          76 rlineto
          -35 -64 -180.99000549316406 -50 -144.02000427246094 hhcurveto
          -363.99000549316406 -307 216 507.97999572753906 554 368.99000549316406 499 554 332 258 -150 -429 hvcurveto
          hintmask 1011111110000000
          -372 -218 -352.00999450683594 -180 -31.009994506835938 141 callgsubr
          34 30 41 6 97.00999450683594 157 callsubr
          103 vhcurveto
          26.009994506835938 203 47 260 callgsubr
          41 154 -128 -24 rcurveline
          36 -56 -118.99000549316406 18 -58 hhcurveto
          -370.00999450683594 -167 -367 -291 -6 hvcurveto
          hintmask 1101111110000000
          -297 -6 152 -132 135 hhcurveto
          158 137.99000549316406 237 218.99000549316406 91 hvcurveto
          -17 -88.99000549316406 -13 callsubr
          -104.02000427246094 -54.99000549316406 vvcurveto
          hintmask 1011111110000000
          -105 5 -100 94 260 331 332 549.0099945068359 vhcurveto
          hintmask 1101111110000000
          400 -261 256 -419 vhcurveto
          -342 -1423 rmoveto
          -104 95 callgsubr
          -62 120.02000427246094 -2 callsubr
          vvcurveto
          247 139.02000427246094 303 260 0.9799957275390625 vhcurveto
          59 105 -23.979995727539062 -20 callgsubr
          -35 callgsubr
          hvcurveto
          -68 -303.97999572753906 -219.02000427246094 -501 60 callsubr
          1 rrcurveto
          endchar
        </CharString>
        <CharString name="atilde">
          20 -15.990005493164062 -80 callgsubr
          224.989990234375 124 21 123 hstemhm
          185 callgsubr
          hintmask 11101000
          1035 1622 rmoveto
          -20 callgsubr
          -33.02000427246094 -41.97999572753906 -13 callgsubr
          -80.02000427246094 hhcurveto
          hintmask 11111000
          118 callsubr
          -103 -118 -83 -82.99000549316406 79 callsubr
          hvcurveto
          68 -65 rlineto
          44 callsubr
          37 44 65 75 hhcurveto
          hintmask 11101000
          -47 callsubr
          -82 callsubr
          21.020004272460938 -143 154.99000549316406 hhcurveto
          106 111 79.00999450683594 92 172 callsubr
          hvcurveto
          107 callsubr
          70 rlineto
          -321 -466 -103 callgsubr
        </CharString>
        <CharString name="b">
          49 11 callsubr
          hstem
          905.9900054931641 102 callgsubr
          259 callsubr
          1155.990005493164 2 callsubr
          84.00999450683594 26.009994506835938 rlineto
          -23 63 100 -20.990005493164062 76.97999572753906 -79 callsubr
        </CharString>
        <CharString name="backslash">
          -256 -362 140 callgsubr
          hstem
          45.99000549316406 708.9900054931641 vstem
          755 -362 rmoveto
          -133 hlineto
          -576 140 callgsubr
          rlineto
          132 hlineto
          577 -1958.990005493164 rlineto
          endchar
        </CharString>
        <CharString name="bar">
          98 callgsubr
          -1965.990005493164 131 1965.990005493164 -131 vlineto
          endchar
        </CharString>
        <CharString name="braceleft">
          -86 -159 104 1661.979995727539 103.00999450683594 hstem
          161.99000549316406 816.9799957275391 vstem
          395 578.9900054931641 rmoveto
          0 -17 callgsubr
          -605.9799957275391 -21.020004272460938 vvcurveto
          -87 -2 35 -24 -12 callgsubr
          hhcurveto
          110 73 15.020004272460938 -11 callgsubr
          91.00999450683594 hvcurveto
          0 7 57 45 callsubr
          11 vhcurveto
          192 callsubr
          hlineto
          93.99000549316406 631 7 -56 callgsubr
          -21 37 -40 190 callgsubr
          rlinecurve
          -34 28 111 callgsubr
          31 -64 29 22.020004272460938 5 205 callsubr
          46 34 17 65 32 35 38.99000549316406 -40 callgsubr
          54 96 callgsubr
          637.9900054931641 rcurveline
          276.00999450683594 hlineto
          14.009994506835938 9.990005493164062 53 0 vhcurveto
          0 -175 36 -88.99000549316406 79 callgsubr
          -37 -41 -150.02000427246094 -23 vhcurveto
          -82 -551 -5 -29 -23 -27 -51 -22 rlinecurve
          -52 -24 -78.00999450683594 -23 -69 -18 -28 callgsubr
          -97.02000427246094 rcurveline
          -42 callgsubr
          -17 64 110 callsubr
          47 -28 36 -21.009994506835938 122 callsubr
          110 callsubr
          -47 callsubr
          -31 rrcurveto
          endchar
        </CharString>
        <CharString name="braceright">
          -86 -164 102.99000549316406 1661.989990234375 104 hstem
          93 816.9799957275391 vstem
          676.9900054931641 966.9799957275391 rmoveto
          0 90.00999450683594 606 21.009994506835938 vvcurveto
          87 45 callsubr
          -35 23.990005493164062 -95.99000549316406 hhcurveto
          -110 227 callgsubr
          -15 -20.990005493164062 142 callsubr
          hvcurveto
          0 -7 111 callgsubr
          -2 -11 vhcurveto
          275.00999450683594 hlineto
          -94 -630.9900054931641 253 callgsubr
          -44 21 -36.99000549316406 40 -31.009994506835938 rlinecurve
          34 -28 57 -31 64 -29 -22 -5 -106 -46 -34 -17 -65 -32 -35 -39 141 callgsubr
          -54 45 callgsubr
          -637.9900054931641 rcurveline
          -275.99000549316406 hlineto
          -28 callgsubr
          -10 -53 0 vhcurveto
          0 174.99000549316406 -36 89 119.00999450683594 78 callsubr
          41 149.99000549316406 23 vhcurveto
          82 551 5 29 23 27.009994506835938 54 callsubr
          22 rlinecurve
          52 24 -61 callgsubr
          23 156 callgsubr
          18 13.990005493164062 97 rcurveline
          -62 17 -64 26 -47 28 -36 -11 callgsubr
          139 callgsubr
          26.009994506835938 2 190 callgsubr
          rrcurveto
          endchar
        </CharString>
        <CharString name="bracketleft">
          -256 -171.99000549316406 104 1674.9700012207031 103.00999450683594 hstem
          193.99000549316406 667.9900054931641 vstem
          407 1518.979995727539 rmoveto
          -44 -337 -150 -889 -16 -272 rrcurveto
          -2 -30.979995727539062 -1 -27.020004272460938 -27 vvcurveto
          -83 35 -24.990005493164062 95 96 callgsubr
          115.02000427246094 17 18.990005493164062 85 vhcurveto
          7 66 rlineto
          -64 -167.02000427246094 2 78 callgsubr
          hhcurveto
          229.99000549316406 1674.9700012207031 rlineto
          292 hlineto
          -47 callgsubr
          66.00999450683594 rlineto
          1 -22 -161 36 45 callgsubr
          hhcurveto
          -121 -36 -20 callgsubr
          -146 -5 callsubr
          hvcurveto
          endchar
        </CharString>
        <CharString name="bracketright">
          -256 -154 103.00999450683594 1674.9700012207031 104.00999450683594 hstem
          50 callgsubr
          667.9900054931641 vstem
          509.99000549316406 78 callsubr
          rmoveto
          -56 callgsubr
          337 61 callgsubr
          889 15.990005493164062 272.02000427246094 rrcurveto
          45 callsubr
          190 callgsubr
          1 27.020004272460938 256 callgsubr
          vvcurveto
          83 -35 208 callgsubr
          173 callgsubr
          45 callgsubr
          -115 -17.020004272460938 -5 callsubr
          191 callsubr
          vhcurveto
          253 callgsubr
          140 callsubr
          rlineto
          64 167 -2 65 hhcurveto
          -230 -1674.979995727539 rlineto
          -291.97999572753906 hlineto
          -9.020004272460938 -66 rlineto
          -1 22 161.02000427246094 -36 96 callgsubr
          hhcurveto
          121 36 251 callsubr
          252 callgsubr
          19 hvcurveto
          endchar
        </CharString>
        <CharString name="breve">
          -393 1304.979995727539 112 hstem
          51.99000549316406 179 callgsubr
          52 1626.990005493164 rmoveto
          125 callgsubr
          127 callgsubr
          188 callgsubr
          1 11 -1 9.990005493164062 rrcurveto
          -101 hlineto
          62 callgsubr
          -15 -9 callgsubr
          88 callsubr
          hlineto
          -18 callsubr
          -6 0 77 callgsubr
          -6 vvcurveto
          endchar
        </CharString>
        <CharString name="breve.cap">
          -395 1636.979995727539 112 hstem
          51.99000549316406 179 callgsubr
          52 1958.990005493164 rmoveto
          125 callgsubr
          127 callgsubr
          188 callgsubr
          1 11 -1 10 rrcurveto
          -101 hlineto
          62 callgsubr
          -15 -9 callgsubr
          88 callsubr
          242 callsubr
          endchar
        </CharString>
        <CharString name="brokenbar">
          98 callgsubr
          -894.0099945068359 131 894.0099945068359 -131 vlineto
          -1072 vmoveto
          -893.9900054931641 131 893.9900054931641 -131 vlineto
          endchar
        </CharString>
        <CharString name="bullet">
          -252 556.9900054931641 333.97999572753906 hstem
          281.97999572753906 330.99000549316406 vstem
          281.97999572753906 692.9799957275391 rmoveto
          -75 59 -60.99000549316406 -61 callgsubr
          118.00999450683594 76 108 93 77 -58 -17 callsubr
          -77.99000549316406 -110.02000427246094 -85 -105 -93 vhcurveto
          endchar
        </CharString>
        <CharString name="c">
          0 callgsubr
          136 callsubr
          vstem
          663.9799957275391 1155.990005493164 -97 callgsubr
        </CharString>
        <CharString name="cacute">
          0 callgsubr
          136 callsubr
          vstem
          564.9799957275391 23 callsubr
          99 60 callsubr
          -97 callgsubr
        </CharString>
        <CharString name="caron">
          -315 1284.990005493164 116 hstem
          224 callgsubr
          711.9799957275391 vstem
          224 callgsubr
          53 callgsubr
          -72 callsubr
          -81 callgsubr
          rlineto
          endchar
        </CharString>
        <CharString name="caron.cap">
          -317 221 callgsubr
          60 callgsubr
          694.9799957275391 vstem
          60 callgsubr
          -25 callsubr
          321.99000549316406 113 callgsubr
          endchar
        </CharString>
        <CharString name="caronvertical">
          -795 1037.979995727539 642 hstem
          267.97999572753906 139.00999450683594 vstem
          197 1088 rmoveto
          4 -12 callsubr
          78 -30 70 224 callsubr
          227 callsubr
          168 5.0200042724609375 -35 callsubr
          154 callgsubr
          121 callsubr
          -48 callsubr
          81 -27.020004272460938 52 218 callgsubr
          -79 -3 151 callgsubr
          50 callsubr
          -88.99000549316406 rrcurveto
          endchar
        </CharString>
        <CharString name="ccaron">
          0 callgsubr
          129.010009765625 116 136 callsubr
          vstem
          372.97999572753906 53 callgsubr
          -81 callgsubr
          -67.00999450683594 rlineto
          291 -456.99000549316406 -97 callgsubr
        </CharString>
        <CharString name="ccedilla">
          -199 -462 126.00999450683594 323.99000549316406 110 945.9799957275391 112 136 callsubr
          177 130.99000549316406 vstem
          649.9900054931641 1043.990005493164 rmoveto
          71.99000549316406 72 -17 -40 50 hvcurveto
          -52 callgsubr
          128 rlineto
          29 -57 -17 callgsubr
          12 -72 hhcurveto
          -379.99000549316406 -195 -408 -315 -258 111 -165.99000549316406 210 -21.990005493164062 hvcurveto
          6 -39 2 -49 79 callsubr
          vvcurveto
          -143 15 callsubr
          -20 68 callgsubr
          rlineto
          -16 22.020004272460938 159 callsubr
          -13 53 hhcurveto
          143 120 156 callgsubr
          215 70 -11 50 callgsubr
          -17 41 hvcurveto
          148 -11 callgsubr
          104.99000549316406 96 callgsubr
          251 callsubr
          58 182 callsubr
          rcurveline
          -86 -87 -84.99000549316406 -60.99000549316406 -114.02000427246094 hhcurveto
          -158.99000549316406 -83 109 241 320.97999572753906 192 275 217 hvcurveto
          endchar
        </CharString>
        <CharString name="ccircumflex">
          0 callgsubr
          136 callsubr
          vstem
          344.99000549316406 2 callgsubr
          -203 377.02000427246094 rlineto
          -137.02000427246094 199 callsubr
          319 -178 -97 callgsubr
        </CharString>
        <CharString name="cdotaccent">
          0 callgsubr
          273.010009765625 213.99000549316406 136 callsubr
          340.989990234375 255 callsubr
          vstem
          581.9799957275391 1527.990005493164 rmoveto
          -57 -4 39 -42 54 callsubr
          hhcurveto
          -1 callgsubr
          -3 hvcurveto
          82 -372 -97 callgsubr
        </CharString>
        <CharString name="cedilla">
          -631 -464.99000549316406 108 callgsubr
          hstem
          280.97999572753906 131 vstem
          323.99000549316406 122 callsubr
          rmoveto
          -59 -48 callsubr
          rlineto
          12 -38.99000549316406 4 -71 -58 vvcurveto
          -142.99000549316406 -70 -38 callgsubr
          -100 87 callsubr
          134 callgsubr
          -35 callsubr
          120.02000427246094 69 215 93 -19 66 -28 -56 callgsubr
          hvcurveto
          -41 -29 callgsubr
          rlineto
          endchar
        </CharString>
        <CharString name="cent">
          -53 -89 callsubr
          -82 callsubr
          945.9799957275391 111 hstem
          139.97999572753906 152 vstem
          700.9900054931641 1043.990005493164 rmoveto
          72.00999450683594 71.99000549316406 -17 -40 109 callsubr
          hvcurveto
          39 128 -49 25 -75 157 callsubr
          107 callsubr
          2 rlinecurve
          60 callgsubr
          203 rlineto
          -116 hlineto
          -50 -209 rlineto
          -323.00999450683594 -57 -165 -369.00999450683594 -290 vvcurveto
          -238 95 -160.02000427246094 179 -40.97999572753906 vhcurveto
          -39 -209 rlineto
          115 hlineto
          37 199 171.99000549316406 7 121.02000427246094 107.97000122070312 50 64 rlinecurve
          -50 82 rlineto
          -86 -87 191 callsubr
          -60.99000549316406 -113.99000549316406 hhcurveto
          -159 -83 109 241 320.97999572753906 192 275 217 hvcurveto
          endchar
        </CharString>
        <CharString name="circumflex">
          -315 1274.979995727539 435.02000427246094 hstem
          121 callgsubr
          682.9799957275391 vstem
          121 callgsubr
          1333.990005493164 rmoveto
          59 -59 250 callgsubr
          127 callsubr
          -69 callsubr
          rlineto
          endchar
        </CharString>
        <CharString name="circumflex.cap">
          -315 1593.990005493164 405.99000549316406 hstem
          50.99000549316406 681 vstem
          51 -27 callgsubr
          218.99000549316406 -264.99000549316406 73.02000427246094 53 -205 194 callgsubr
          rlineto
          endchar
        </CharString>
        <CharString name="colon">
          -607 204 callgsubr
          611.989990234375 220.00999450683594 hstemhm
          252 callsubr
          210 -113 210 hintmask 00000000
          hintmask 11010000
          302.97999572753906 1035 40 callsubr
          -21 callgsubr
          -35 50 hhcurveto
          -76 callgsubr
          46 251 callsubr
          82.99000549316406 2 hvcurveto
          52 1 -25.009994506835938 -21 callgsubr
          -65 hhcurveto
          hintmask 11100000
          -97 -832 18 callgsubr
        </CharString>
        <CharString name="colonmonetary">
          217 -353.99000549316406 2169 hstem
          173.99000549316406 1106.979995727539 vstem
          546.9700012207031 5 rmoveto
          -70.97999572753906 -358.99000549316406 rlineto
          -91.02000427246094 hlineto
          171 callsubr
          393.99000549316406 rlineto
          -206 -84 callsubr
          -82.99000549316406 259.00999450683594 240.99000549316406 vvcurveto
          454 239 260 callsubr
          342 167 callsubr
          vhcurveto
          59 295.02000427246094 rlineto
          91 hlineto
          -55 -276 rlineto
          -29 callgsubr
          35 36 3 36 hhcurveto
          20.009994506835938 18.990005493164062 -1 -1 19 hvcurveto
          54 271.00999450683594 rlineto
          -23 callgsubr
          hlineto
          -61 callsubr
          -280 76 -11 57 -17.020004272460938 45 -13 callsubr
          rlinecurve
          -5 callgsubr
          -121 -23 16 -52 21.020004272460938 -76 11.979995727539062 rlinecurve
          -261 -1317.990005493164 -50 callgsubr
          92 callsubr
          -12 callgsubr
          -21 callgsubr
          75.99000549316406 51 rlinecurve
          43 -97.00999450683594 -59 -60.99000549316406 -143 -49 -173 -12.979995727539062 rlinecurve
          -81 callgsubr
          -342 rlineto
          54 callgsubr
          hlineto
          -79 callgsubr
          338 rlineto
          -9 hlineto
          -56 -50 76 callsubr
          13 -20 callgsubr
          hvcurveto
          280 1418 rmoveto
          -256 -1297 rlineto
          -19 44 50 -10 55 hhcurveto
          9 hlineto
          264 1333 rlineto
          1 -12 callsubr
          -20.990005493164062 95 callgsubr
          -21.020004272460938 hhcurveto
          -35.97999572753906 -35 -84 callgsubr
          -6 -33.02000427246094 hvcurveto
          -95.99000549316406 -25 rmoveto
          -241 -88 -151 -256.97999572753906 -5 -376.00999450683594 -84 callgsubr
          -210 45 -187.99000549316406 -82 callsubr
          -101 241 1220 rcurveline
          endchar
        </CharString>
        <CharString name="comma">
          -607 -501 765.9900054931641 hstem
          257 callgsubr
          159 vstem
          -23 callgsubr
          127 -30 callsubr
        </CharString>
        <CharString name="copyright">
          951 -23 callgsubr
          100 276.989990234375 121 704 121.00999450683594 273.00001525878906 121 callgsubr
          hstem
          175 callgsubr
          110 300.989990234375 148 1012.010009765625 -63 callsubr
          49 1223 rmoveto
          -309 -170 -211 -270.00999450683594 1 hvcurveto
          -245.99000549316406 158 -219.02000427246094 267 130 118.00999450683594 41 52 63 vhcurveto
          -36 95.00999450683594 rlineto
          -35 -58 -94 -32 -103 hhcurveto
          -169 -128 122 233 193 -84 callsubr
          156 203 95 74 -23.990005493164062 -31 50 hvcurveto
          27 122 callgsubr
          rlineto
          19 -39 -78.00999450683594 32 -115 hhcurveto
          endchar
        </CharString>
        <CharString name="currency">
          404 251.99000549316406 102.00999450683594 671.9799957275391 102.00999450683594 hstem
          325.97999572753906 190 callsubr
          652.0000152587891 -82 callsubr
          vstem
          1205.990005493164 689.9900054931641 rmoveto
          96 callgsubr
          70 callsubr
          89 259 callgsubr
          72.00999450683594 vhcurveto
          189 156 callsubr
          -87 87 -187 -187.99000549316406 rlineto
          58 -75 -94 35 -103 hhcurveto
          -97 -90 -31 -54 -73 hvcurveto
          -192 193 -87.02000427246094 -87 191.02000427246094 -191 rlineto
          -58 -74 158 callsubr
          -93 -101 vvcurveto
          -102.00999450683594 35 210 callgsubr
          59 -75.02000427246094 vhcurveto
          -189.99000549316406 -189.99000549316406 87 -86 191 191 rlineto
          -51 -32 callgsubr
          62 callsubr
          -31 -12 callgsubr
          hhcurveto
          100 92 33 50 callgsubr
          74 hvcurveto
          191 -191 87 86 -192 192 rlineto
          55 -32 callgsubr
          33 91 99 vvcurveto
          -440 -336 rmoveto
          -180 -146 151 185 185 146 151 180 181 145 -151 -185 -185 -145 -151 -181 hvcurveto
          endchar
        </CharString>
        <CharString name="d">
          39 22 callsubr
          947.010009765625 77 callsubr
          150 callsubr
          965.9799957275391 235 callgsubr
          222 callsubr
          -94 callsubr
          223.99000549316406 94 callsubr
          rlineto
          -148 hlineto
          -542.9900054931641 -1537 -88 callsubr
        </CharString>
        <CharString name="dagger">
          -295 1145.990005493164 43 callsubr
          137.99000549316406 734.9799957275391 vstem
          409.99000549316406 1007.9799957275391 rmoveto
          -104 -856.9900054931641 rlineto
          -23 callgsubr
          hlineto
          158 856.9900054931641 12 138.02000427246094 rlineto
          291 hlineto
          16 114 rlineto
          -307 hlineto
          56 209 29 177 rlineto
          -144.02000427246094 hlineto
          110 callsubr
          -177 -11 -209 rlineto
          -316.00999450683594 hlineto
          -16 -114 rlineto
          298.99000549316406 hlineto
          -27 -138.02000427246094 rlineto
          endchar
        </CharString>
        <CharString name="daggerdbl">
          -295 649.5 114.47999572753906 382.010009765625 -82 callsubr
          hstemhm
          403.97999572753906 165 -85.489990234375 376.99000549316406 hintmask 11100000
          343.97999572753906 509.99000549316406 rmoveto
          -52 -560.9900054931641 rlineto
          88 hlineto
          61 callsubr
          560.9900054931641 157 callsubr
          139 240 1 16 114 rlineto
          -248 hlineto
          54 217 12 165 rlineto
          hintmask 11010000
          276.99000549316406 hlineto
          17 114 rlineto
          hintmask 11100000
          97 callgsubr
          hlineto
          50 callgsubr
          209 28 177 rlineto
          -144 hlineto
          110 callsubr
          -177 -63 callgsubr
          -209 rlineto
          -286.97999572753906 hlineto
          -16.020004272460938 -114 rlineto
          271.02000427246094 hlineto
          -22 callgsubr
          -165 141 callgsubr
          -217 rlineto
          -251 hlineto
          -18 -114 169 callgsubr
          -1 -29 -139 rlineto
          endchar
        </CharString>
        <CharString name="dcaron">
          319 22 callsubr
          947.010009765625 77 callsubr
          -8 callsubr
          1064.009994506836 168 callsubr
          vstem
          1408 1658 rmoveto
          -133.02000427246094 -35 253 callgsubr
          128 callsubr
          -5.0200042724609375 -122 -34 -122 50 callsubr
          -89.00999450683594 4 -56 callsubr
          rcurveline
          171 callsubr
          -30 70 101 53 168 5 -35 callsubr
          154 callgsubr
          97 -4 239 callgsubr
          rrcurveto
          -512 -527.0099945068359 rmoveto
          -94 callsubr
          223.99000549316406 94 callsubr
          rlineto
          -148 hlineto
          222 callsubr
          -473.00999450683594 -1031 -88 callsubr
        </CharString>
        <CharString name="dcroat">
          39 22 callsubr
          947.010009765625 77 callsubr
          135.99998474121094 100 150 callsubr
          1223.990005493164 1391.979995727539 rmoveto
          -144 hlineto
          34 245 rlineto
          -148 hlineto
          -34 -245 rlineto
          -290 hlineto
          -13 -100 rlineto
          290.02000427246094 hlineto
          -23 -161 rlineto
          -94 callsubr
          258 callgsubr
          1291.979995727539 rlineto
          144 hlineto
          13 100 rlineto
          -801 -1292 -88 callsubr
        </CharString>
        <CharString name="degree">
          -211 954.9799957275391 93 458.99000549316406 93.02000427246094 hstem
          146.97999572753906 61 callsubr
          437.99000549316406 61 callsubr
          vstem
          146.97999572753906 1279 rmoveto
          -177 -84 callgsubr
          137 -147 182 hhcurveto
          127 callgsubr
          145 139 185.02000427246094 3 hvcurveto
          258 callgsubr
          -87 callgsubr
          -4 callgsubr
          144.02000427246094 -185 hhcurveto
          -190.02000427246094 212 callsubr
          -138.02000427246094 -182.99000549316406 120 callsubr
          hvcurveto
          546 hmoveto
          -132.02000427246094 -47 callsubr
          -92 -99 -131 hhcurveto
          -122 -94 103.02000427246094 128 3 hvcurveto
          -59 callsubr
          45 callsubr
          92.02000427246094 98 128.99000549316406 hhcurveto
          123 95 -98 -129.99000549316406 -3 hvcurveto
          endchar
        </CharString>
        <CharString name="dieresis">
          -301 1409.979995727539 213 hstem
          87 callgsubr
          106 callgsubr
          87 callgsubr
          202 callgsubr
          81 callgsubr
          3 217 callsubr
          421 hmoveto
          -57 -48 callsubr
          13 callsubr
          endchar
        </CharString>
        <CharString name="dieresis.cap">
          -303 1720.990005493164 35 callgsubr
          87 209 callgsubr
          248 callgsubr
          vstem
          87 1818.990005493164 rmoveto
          -57 -3 39 -41 49 hhcurveto
          75 callgsubr
          45 callsubr
          -34 40 -59.99000549316406 hhcurveto
          -38 callgsubr
          -61 callsubr
          -51 -65 -4 hvcurveto
          419 hmoveto
          -58 -1 -35 callgsubr
          -40 49 hhcurveto
          62 51 83 callsubr
          4 16 callsubr
          -18 callsubr
          hvcurveto
          endchar
        </CharString>
        <CharString name="divide">
          228 276.99000549316406 69 callsubr
          253 callsubr
          122 213.989990234375 69 callsubr
          hstemhm
          624.9799957275391 224 hintmask 00000000
          hintmask 11110000
          624.9900054931641 1152 rmoveto
          -67.02000427246094 -8 251 callsubr
          -35 -24 callsubr
          hhcurveto
          59 66.00999450683594 45 74.02000427246094 8 hvcurveto
          58 76 callsubr
          -27 44 callsubr
          -71 hhcurveto
          -58 -67.99000549316406 -47 -70.97999572753906 -8.009994506835938 hvcurveto
          -368 -316.00999450683594 rmoveto
          -28 callgsubr
          -122 rlineto
          868.9900054931641 hlineto
          14.009994506835938 122 rlineto
          -869.0099945068359 hlineto
          273 -457.00999450683594 rmoveto
          107 callsubr
          141 callgsubr
          44 -36 55 hhcurveto
          59.99000549316406 192 callgsubr
          45 74 -47 callgsubr
          hvcurveto
          58 -40 callgsubr
          139 callgsubr
          43 -71 hhcurveto
          49 callsubr
          -81 callgsubr
          -48 -70 -8 hvcurveto
          endchar
        </CharString>
        <CharString name="dollar">
          94 -19 116 1332.990005493164 298.97999572753906 hstem
          285.97999572753906 130 callsubr
          155.99000549316406 vstem
          753.9900054931641 1430 rmoveto
          38 callgsubr
          123 -28 -56 57 hvcurveto
          48 115 -40 29 -77 -52 callgsubr
          -140.97999572753906 12 rlinecurve
          228 callgsubr
          187.99000549316406 rlineto
          -4 callgsubr
          hlineto
          -30 -186 -238 -16 -176 -141 5 -235.99000549316406 rlinecurve
          -60 callgsubr
          -230 182.99000549316406 -121 148 -95.99000549316406 rrcurveto
          156 -101.00999450683594 87 -89 -139 vvcurveto
          -193 -174 62 callgsubr
          -184 -145.02000427246094 -153.99000549316406 54 40 -37 vhcurveto
          -41.97999572753906 -123 38.99000549316406 -32 128 -43.99000549316406 145 -11 rlinecurve
          -34 -210.99000549316406 rlineto
          -50 callgsubr
          hlineto
          35 211.99000549316406 259.00999450683594 23.979995727539062 187.99000549316406 147 -5 258 rlinecurve
          -4 208 -164 111 -142 93 -162 107.00999450683594 -117 -61 callgsubr
          6 181 rrcurveto
          200 5.0200042724609375 156 callsubr
          41 123 hhcurveto
          endchar
        </CharString>
        <CharString name="dong">
          221 134.97999572753906 155.99000549316406 957.0099945068359 160 hstem
          -17 callsubr
          1330.990005493164 vstem
          988 290.97999572753906 rmoveto
          166 callsubr
          hlineto
          -13 callsubr
          -1 11.020004272460938 11 -29 callgsubr
          -87 callgsubr
          28 7 55 hvcurveto
          -39 -42 -94 -70 -180 hhcurveto
          -199.99000549316406 -163 116.02000427246094 244.99000549316406 322 213 274 360 121 callsubr
          63 -26 -16 94 callgsubr
          hvcurveto
          21.020004272460938 148 7 54 rlineto
          -270 hlineto
          17 -84 callsubr
          rlineto
          268 hlineto
          24 173 rlineto
          145 hlineto
          -23 -173 rlineto
          237 hlineto
          -17 207 callsubr
          rlineto
          -235 hlineto
          -146.99000549316406 -1117.0299987792969 rlineto
          -637.0099945068359 393.02000427246094 rmoveto
          -182 91.00999450683594 -85 212 callgsubr
          204 61 93 callgsubr
          23 23 vhcurveto
          -76 callgsubr
          564.0200042724609 rlineto
          12.979995727539062 -13 callsubr
          -63 24 -111 hhcurveto
          -264 -134 -214 -227 hvcurveto
          786 -683.9900054931641 rmoveto
          -1081 hlineto
          141 callsubr
          134.97999572753906 rlineto
          1082 hlineto
          -21 -134.97999572753906 rlineto
          endchar
        </CharString>
        <CharString name="dotaccent">
          -723 1425.979995727539 214.00999450683594 hstem
          -45 callgsubr
          30 callgsubr
          -45 callgsubr
          1524.979995727539 -3 callgsubr
          186 callgsubr
          -71 callgsubr
          137 callsubr
          -56 -52 -50 -65 120 callsubr
          hvcurveto
          endchar
        </CharString>
        <CharString name="dotaccent.cap">
          -721 162 callsubr
          hstem
          249 callsubr
          201 vstem
          249 callsubr
          -66 callgsubr
          -56 181 callgsubr
          endchar
        </CharString>
        <CharString name="dotlessi">
          -546 0 1143.990005493164 234 callgsubr
          303 vstem
          286.97999572753906 1143.990005493164 -95 callsubr
          endchar
        </CharString>
        <CharString name="e">
          -48 callgsubr
          680 1155.990005493164 -107 callgsubr
        </CharString>
        <CharString name="eacute">
          -48 callgsubr
          548.9900054931641 184 callsubr
          -77 callgsubr
          -115 200 callsubr
          131 60 callsubr
          -107 callgsubr
        </CharString>
        <CharString name="ebreve">
          -74 callsubr
          152.010009765625 -38 callsubr
          239 callsubr
          -12 callgsubr
          104 357.989990234375 149 -80.989990234375 99 hintmask 11111110
          348 1629.979995727539 rmoveto
          137 callgsubr
          208 vhcurveto
          hintmask 11111101
          117 callgsubr
          16.020004272460938 46 callsubr
          -48 106 95 -11 hvcurveto
          -47 callsubr
          10 -1 12 -40 callgsubr
          vvcurveto
          -103 hlineto
          hintmask 11111110
          -1 -6 0 -63 callgsubr
          -6 vvcurveto
          332 -473.99000549316406 -107 callgsubr
        </CharString>
        <CharString name="ecaron">
          -74 callsubr
          129.010009765625 116 hstem
          -23 callgsubr
          161.99000549316406 557.9999847412109 149 vstem
          207 callgsubr
          5 callgsubr
          322 -456.99000549316406 -107 callgsubr
        </CharString>
        <CharString name="ecircumflex">
          -48 callgsubr
          249 callgsubr
          1333.990005493164 rmoveto
          59 -59 250 callgsubr
          127 callsubr
          -69 callsubr
          rlineto
          350 -178 -107 callgsubr
        </CharString>
        <CharString name="edieresis">
          -74 callsubr
          254 213 239 callsubr
          102.99998474121094 255 callsubr
          143 callsubr
          -67 callsubr
          -168.99000549316406 149 hintmask 11111101
          354.97999572753906 1507.979995727539 49 callgsubr
          -34 callsubr
          120 callsubr
          hvcurveto
          hintmask 11111110
          421.00999450683594 hmoveto
          81 callgsubr
          158 callgsubr
          217 callsubr
          hintmask 11111101
          -95.99000549316406 -351.99000549316406 -107 callgsubr
        </CharString>
        <CharString name="edotaccent">
          -74 callsubr
          273.010009765625 213.99000549316406 239 callsubr
          313.99998474121094 -67 callsubr
          41.00999450683594 149 hintmask 00000000
          hintmask 11111110
          565.9900054931641 1527.990005493164 rmoveto
          -57 -4 39 -72 callgsubr
          -3 hvcurveto
          hintmask 11101010
          190 callsubr
          -372 -107 callgsubr
        </CharString>
        <CharString name="egrave">
          -48 callgsubr
          286.97999572753906 1600 rmoveto
          149 callsubr
          65 55 229 callgsubr
          393.00999450683594 -444.00999450683594 -107 callgsubr
        </CharString>
        <CharString name="eight">
          139 -17 104 1382.990005493164 99 hstemhm
          69 callgsubr
          160.99000549316406 193 callgsubr
          152.99000549316406 450.00999450683594 163 -80 149.99000549316406 hintmask 00000000
          hintmask 11010100
          517 820 rmoveto
          hintmask 11101000
          -190.02000427246094 -82 -206.99000549316406 -168 -222 vvcurveto
          -247 222 -117.97999572753906 204 280.97999572753906 235 155.99000549316406 262 170.99000549316406 -154 133 -145.99000549316406 100 vhcurveto
          hintmask 11010100
          201 72 169 168 198 vvcurveto
          202 -163 124 -211 -258.99000549316406 -203 -140 -258.00999450683594 -159.99000549316406 115 -109.02000427246094 106 -81.99000549316406 vhcurveto
          465 412 rmoveto
          -179 -163 -128 -136 -61 vhcurveto
          -124 88 -110 101 145 vvcurveto
          161 131 111 161 125.00999450683594 116 -78.00999450683594 -159.99000549316406 vhcurveto
          hintmask 11101000
          -409.00999450683594 -1145 rmoveto
          -183.99000549316406 -108.00999450683594 121 171 callgsubr
          hvcurveto
          3 186 171.99000549316406 143 141 -79 callgsubr
          rrcurveto
          171.99000549316406 -115 130 -124 -151 vvcurveto
          -173 -154 207 callsubr
          -172 vhcurveto
          endchar
        </CharString>
        <CharString name="ellipsis">
          399 204 callgsubr
          hstemhm
          106.99000549316406 211 292 210.97999572753906 hintmask 00000000
          hintmask 11100000
          227.97999572753906 203 rmoveto
          -58 -53.99000549316406 -48 -70 86 callsubr
          -81 callgsubr
          77 callgsubr
          78 callsubr
          170 callgsubr
          55 hhcurveto
          60 263 callsubr
          76 callsubr
          -24.990005493164062 43 227 callgsubr
          hhcurveto
          503.00999450683594 hmoveto
          -58 -54 -48 -70 77 callgsubr
          hvcurveto
          -81 callgsubr
          -63 callgsubr
          36 170 callgsubr
          55 hhcurveto
          -45 callgsubr
          263 callsubr
          8 -25 43 109 callgsubr
          hhcurveto
          502.99000549316406 hmoveto
          49 callsubr
          -53 -48 -70 -10.020004272460938 hvcurveto
          -81 callgsubr
          77 callgsubr
          37 170 callgsubr
          50 callgsubr
          hhcurveto
          61 57 42.97999572753906 75 10 hvcurveto
          59 -40 callgsubr
          -25.009994506835938 43 -72 hhcurveto
          endchar
        </CharString>
        <CharString name="emacron">
          -74 callsubr
          281.010009765625 43 callsubr
          -23 callgsubr
          161.99000549316406 557.9999847412109 149 vstem
          378.97999572753906 233 callsubr
          -4 21 callgsubr
          -510.02000427246094 hlineto
          301.02000427246094 -395 -107 callgsubr
        </CharString>
        <CharString name="emdash">
          918 711.9799957275391 121 hstem
          69 callsubr
          1612.979995727539 vstem
          169 callgsubr
          832.9799957275391 rmoveto
          -22 -121 rlineto
          1589.990005493164 hlineto
          23 121 rlineto
          -1590.990005493164 hlineto
          endchar
        </CharString>
        <CharString name="endash">
          425 711.9799957275391 121 hstem
          69 callsubr
          1119.979995727539 vstem
          243 832.9799957275391 rmoveto
          -23 -121 rlineto
          1096.990005493164 hlineto
          23 121 rlineto
          -1096.990005493164 hlineto
          endchar
        </CharString>
        <CharString name="eng">
          84 -518 81 1455.979995727539 137 hstem
          908.9799957275391 152 vstem
          835.9900054931641 120 callgsubr
          -172 -186 -134 -150 -118.99000549316406 hvcurveto
          30 268 rlineto
          -141 hlineto
          -155 131 callsubr
          97 712.9900054931641 rlineto
          -87 callsubr
          61 callsubr
          197 152 131.99000549316406 hhcurveto
          100 34 -61 callsubr
          -108 -167.02000427246094 -67.99000549316406 -379 -42 -260 hvcurveto
          -246.99000549316406 -40 -76 -239 -204 hhcurveto
          -56 callsubr
          -50 -40 callgsubr
          12.979995727539062 -24 hvcurveto
          142 callgsubr
          -61.99000549316406 rlineto
          -24 22 62 -16 63 hhcurveto
          222.99000549316406 157 168 350 55 hvcurveto
          52 320 66.00999450683594 387.99000549316406 -87 callgsubr
          155 rrcurveto
          207 -74 86 -151 vhcurveto
          endchar
        </CharString>
        <CharString name="eogonek">
          -68 -434.99000549316406 -84 callsubr
          306.00999450683594 198 callsubr
          hstem
          -23 callgsubr
          161.99000549316406 108.99998474121094 148 301 149 vstem
          495.97999572753906 167 callgsubr
          rmoveto
          -211.99000549316406 -20 callgsubr
          186 155 8 hvcurveto
          231 12 481.02000427246094 120.02000427246094 331 vvcurveto
          141 -89 109 -190 -343 -237.02000427246094 -317.00999450683594 -397.99000549316406 -10 vhcurveto
          107 callgsubr
          -6 106 -231.97000122070312 289 hhcurveto
          45 42 6 10.970001220703125 40 hvcurveto
          -92 -57.97999572753906 -153 -111 -118 vvcurveto
          -59 54 callsubr
          54 callgsubr
          -50 callgsubr
          116 85.00999450683594 50 callgsubr
          -52 callgsubr
          45 vhcurveto
          -40 -7 callgsubr
          -49 -54 -21.020004272460938 -54.99000549316406 hhcurveto
          -51 -37 26 callsubr
          258.00999450683594 206.99000549316406 -45 callgsubr
          126 callgsubr
          hvcurveto
          -4 -2 256 callgsubr
          23 21.020004272460938 24 92 callsubr
          20 rlinecurve
          -43 86 rlineto
          -115 -114 -124.99000549316406 -55 -109.02000427246094 hhcurveto
          152 940.9900054931641 rmoveto
          213 callgsubr
          -210 -332.99000549316406 -126 -225 -7 hvcurveto
          228 21.009994506835938 152.99000549316406 264.99000549316406 222 hhcurveto
          endchar
        </CharString>
        <CharString name="equal">
          99 callsubr
          181.99000549316406 986.9900054931641 rmoveto
          -13 -120.02000427246094 rlineto
          814.0200042724609 hlineto
          13.990005493164062 120.02000427246094 rlineto
          -815 hlineto
          -70 -509.00999450683594 rmoveto
          -13 -119.99000549316406 rlineto
          814.0200042724609 hlineto
          13.990005493164062 69 callgsubr
          rlineto
          -815 hlineto
          endchar
        </CharString>
        <CharString name="estimated">
          262 -89 callsubr
          -23 callgsubr
          556.9799957275391 106 529.010009765625 -23 callgsubr
          hstem
          -84 callsubr
          227 725.989990234375 212 vstem
          1267 630.9900054931641 rmoveto
          11 51 0 64 86.02000427246094 vvcurveto
          -11 328.99000549316406 -238 200 -289.02000427246094 -5.0200042724609375 rrcurveto
          -415.99000549316406 253 callgsubr
          -211 -286 -392 vvcurveto
          -430 231 -256.97999572753906 392 138 199 36.97999572753906 -45 callgsubr
          85 vhcurveto
          -29.990005493164062 87 rlineto
          -39 -69.02000427246094 -160.99000549316406 -56 -145 hhcurveto
          -179 -147 57 135 -87 hvcurveto
          365 927.0099945068359 vlineto
          -537.0099945068359 635 rmoveto
          171 104 -62 -87 -45 callgsubr
          hvcurveto
          -380 -726 327 vlineto
          138 86 142 64 162 hhcurveto
          endchar
        </CharString>
        <CharString name="eth">
          52 -17 168 callgsubr
          959.010009765625 38 callgsubr
          183 callsubr
          160 664 151.97999572753906 vstem
          762 1565.979995727539 rmoveto
          -7 6 rlineto
          52 59 100 116 0 vvcurveto
          -76 69 rlineto
          0 45 callgsubr
          -116 -62 -68 vhcurveto
          -93 61 -121 58 -77 17.990005493164062 -34 -92 rcurveline
          74 -16 96 callgsubr
          -54 84 -59 -164 -172 rcurveline
          82 -67.99000549316406 160 179 139 -123 73.99000549316406 -128 28 -194.99000549316406 rlinecurve
          68 callsubr
          -5 callgsubr
          68 callgsubr
          37 157 callgsubr
          hhcurveto
          -284.02000427246094 -272 -266 -452.02000427246094 -214 129 -239.97999572753906 271 375 201 406.97999572753906 478 277.02000427246094 -93 227 -209.99000549316406 193.99000549316406 hvcurveto
          132 -950.9900054931641 rmoveto
          -291 -39 -151 -236 -194 hhcurveto
          -170 142 callsubr
          166 175 318 -35 callsubr
          300.00999450683594 248.02000427246094 186 79 -152 111 callgsubr
          8 hvcurveto
          -87 callgsubr
          87 callsubr
          -13 -103 77 callgsubr
          -77 rrcurveto
          endchar
        </CharString>
        <CharString name="exclam">
          -489 204 callgsubr
          -219.99000549316406 1794.990005493164 hstemhm
          130.99000549316406 439.99000549316406 -438.99000549316406 224.99000549316406 hintmask 01100000
          73 callsubr
          hintmask 10010000
          -132 17 callgsubr
          endchar
        </CharString>
        <CharString name="exclamdbl">
          88 204 callgsubr
          hstemhm
          130.99000549316406 1015 -1014 224.99000549316406 350.00999450683594 224.99000549316406 hintmask 11000000
          73 callsubr
          575 hmoveto
          -163 -1290 rlineto
          69 callgsubr
          hlineto
          215.02000427246094 1290 rlineto
          -172 hlineto
          hintmask 10110000
          -706.9900054931641 17 callgsubr
          575 hmoveto
          -65 -61 -48 -70 77 callgsubr
          hvcurveto
          -81 callgsubr
          -9 44 170 callgsubr
          54 hhcurveto
          225 callgsubr
          57 42.97999572753906 75 11 hvcurveto
          59 -40 callgsubr
          230 callgsubr
          endchar
        </CharString>
        <CharString name="exclamdown">
          -489 1140.979995727539 220.00999450683594 hstemhm
          297.97999572753906 225 hintmask 00000000
          hintmask 11000000
          387.99000549316406 1140.979995727539 rmoveto
          65 -45 callgsubr
          48 70 9.009994506835938 hvcurveto
          -71 callgsubr
          -47 callgsubr
          -43.99000549316406 35 -54 hhcurveto
          -68 111 callgsubr
          -43 -75 -11 hvcurveto
          -59 141 callgsubr
          122 callsubr
          -43 72 hhcurveto
          -131.99000549316406 -1574.9700012207031 rmoveto
          162.97999572753906 1289.9700012207031 rlineto
          -119.99000549316406 hlineto
          -215 -1289.9700012207031 rlineto
          172.02000427246094 hlineto
          endchar
        </CharString>
        <CharString name="f">
          -415 -75 callsubr
          endchar
        </CharString>
        <CharString name="f_f">
          280 1020.9799957275391 119 422 116 hstem
          42 callgsubr
          544.489990234375 225 callsubr
          -71 callsubr
          695.0099945068359 hmoveto
          -137 -1020.9900054931641 rlineto
          148 hlineto
          138 38 callsubr
          rlineto
          250 hlineto
          9.009994506835938 119.00999450683594 rlineto
          -243.02000427246094 hlineto
          21.009994506835938 162 18 -35 callsubr
          86 116 122 callgsubr
          1 rlinecurve
          156 callgsubr
          -25 callgsubr
          143 callgsubr
          4 -51 hhcurveto
          -228 -140 -169 -245 50 callsubr
          67 callgsubr
          endchar
        </CharString>
        <CharString name="f_f_i">
          844 -2 callgsubr
          42 callgsubr
          544.489990234375 225 callsubr
          532.5 -67 callsubr
          hintmask 10111100
          -102 callsubr
          695.0099945068359 hmoveto
          -137 -1020.9900054931641 rlineto
          148 hlineto
          138 38 callsubr
          rlineto
          250 hlineto
          9.009994506835938 119.00999450683594 rlineto
          -243.02000427246094 hlineto
          21.009994506835938 162 18 -35 callsubr
          86 116 122 callgsubr
          1 rlinecurve
          156 callgsubr
          -25 callgsubr
          143 callgsubr
          4 -51 hhcurveto
          -228 -140 -169 -245 50 callsubr
          67 callgsubr
          hintmask 11011100
          708 507 rmoveto
          -57 -4 39 -42 51 hhcurveto
          61 115 callgsubr
          -61 callsubr
          37 callsubr
          -3 hvcurveto
          -30 -384 30 callsubr
          -1143.990005493164 rlineto
          147.99000549316406 hlineto
          256 callsubr
          -6 callsubr
          -149.02000427246094 hlineto
          endchar
        </CharString>
        <CharString name="f_f_l">
          843 1020.9799957275391 119 422 116 hstem
          42 callgsubr
          544.489990234375 225 callsubr
          -71 callsubr
          695.0099945068359 hmoveto
          -137 -1020.9900054931641 rlineto
          148 hlineto
          138 38 callsubr
          rlineto
          250 hlineto
          9.009994506835938 119.00999450683594 rlineto
          -243.02000427246094 hlineto
          21.009994506835938 162 18 -35 callsubr
          86 116 122 callgsubr
          1 rlinecurve
          156 callgsubr
          -25 callgsubr
          143 callgsubr
          4 -51 hhcurveto
          -228 -140 -169 -245 50 callsubr
          67 callgsubr
          746.9900054931641 616 114 callsubr
        </CharString>
        <CharString name="ffi_dflt">
          844 -2 callgsubr
          126 callsubr
          -67 callsubr
          373.00999450683594 150.49000549316406 544.5 225 callsubr
          hintmask 10111100
          -67 callgsubr
          695.0099945068359 hmoveto
          -137 -1020.9900054931641 rlineto
          148 hlineto
          137.99000549316406 38 callsubr
          rlineto
          250 hlineto
          9.020004272460938 119.00999450683594 rlineto
          -243 hlineto
          20.990005493164062 162 18 142.99000549316406 86 116 125.00999450683594 1 rlinecurve
          69 -25 callgsubr
          -51 4 143 callgsubr
          hhcurveto
          -228 -139.99000549316406 -169 -245 -32 67 callgsubr
          hintmask 11011100
          -1246 507 -92 callsubr
        </CharString>
        <CharString name="fi">
          149 -2 callgsubr
          42 callgsubr
          532.5099945068359 -67 callsubr
          hintmask 10111000
          -102 callsubr
          hintmask 11011000
          708.0200042724609 507 rmoveto
          56 callgsubr
          -59 hhcurveto
          -61 callsubr
          -52 -49.99000549316406 164 callgsubr
          -30 -384 rmoveto
          -154 -1143.990005493164 rlineto
          148 hlineto
          155 -6 callsubr
          258 callsubr
          hlineto
          endchar
        </CharString>
        <CharString name="fi_trk">
          149 -2 callgsubr
          126 callsubr
          -67 callsubr
          373.00999450683594 150.49000549316406 hintmask 10111000
          -67 callgsubr
          hintmask 11011000
          -551 507 -92 callsubr
        </CharString>
        <CharString name="five">
          -6 -346 115.00999450683594 690.9700012207031 117 439.010009765625 128 hstem
          769.9799957275391 175 vstem
          -36 callsubr
          -230.99000549316406 rmoveto
          -33 139 callgsubr
          -87 callgsubr
          7 -32.99000549316406 hvcurveto
          -18 -108 rlineto
          -14 40 57 -3 33 hhcurveto
          412.02000427246094 363.99000549316406 225 330.97999572753906 217 207 callsubr
          150 -265.02000427246094 -92 -103 -24 -24.990005493164062 -65 hvcurveto
          69 callgsubr
          488 rlineto
          581 hlineto
          209 callsubr
          144 rlineto
          -128 hlineto
          -19 -16 rlineto
          -582 hlineto
          -153.99000549316406 -695.0099945068359 58 -58 rlineto
          209 callsubr
          -79 callgsubr
          111 -35 callgsubr
          106 hhcurveto
          257 callgsubr
          88 -105 -172.99000549316406 -270.99000549316406 -312 212 callsubr
          -309 hvcurveto
          endchar
        </CharString>
        <CharString name="fl">
          148 -75 callsubr
          747.0099945068359 616 rmoveto
          -223 -1634 rlineto
          149 hlineto
          221.99000549316406 1634 rlineto
          60 callsubr
          hlineto
          endchar
        </CharString>
        <CharString name="florin">
          -51 1032.990005493164 119 407 118.99000549316406 hstemhm
          175 callgsubr
          822 -556.010009765625 -29 callsubr
          hintmask 11100000
          441 1032.990005493164 rmoveto
          254 callgsubr
          -1388.990005493164 rlineto
          61 callgsubr
          hlineto
          181.99000549316406 1388.990005493164 rlineto
          301.02000427246094 hlineto
          11.990005493164062 119.00999450683594 rlineto
          hintmask 11010000
          -296.97999572753906 hlineto
          16 118.99000549316406 rlineto
          229 30 82 59 -59 callsubr
          hhcurveto
          91.00999450683594 39 -19 -8 16 hvcurveto
          9.009994506835938 129 rlineto
          6 -12 -50 11 -89.00999450683594 hhcurveto
          -174 -187.99000549316406 -144 -306.00999450683594 -38.02000427246094 hvcurveto
          -9.990005493164062 -75.97999572753906 -250 -40.02000427246094 -11 70 callgsubr
          rlineto
          hintmask 11100000
          245 hlineto
          endchar
        </CharString>
        <CharString name="four">
          130 0 107.5 hstem
          23 1095.979995727539 vstem
          728.9900054931641 1256 rmoveto
          -251.99000549316406 -452.02000427246094 -231 -383 -222.99000549316406 -349 27 -13 callgsubr
          rcurveline
          647 hlineto
          -49 -375 rlineto
          145 hlineto
          47 375 rlineto
          263 hlineto
          16 133 -263 -11 -71 callgsubr
          527 -147 -28 -64 -507 -524 -13 61 callsubr
          158 576.9900054931641 928.9900054931641 -105.99000549316406 208 callsubr
          rlineto
          -38 hlineto
          endchar
        </CharString>
        <CharString name="four.numr">
          84 823.9900054931641 115 hstem
          130.99000549316406 986.9900054931641 vstem
          1117.979995727539 957.9900054931641 rmoveto
          -262.97999572753906 -8 40 293 -155.02000427246094 -18 -39 -280 -404 -12 583 754.0099945068359 39 callgsubr
          85 callsubr
          -38 hlineto
          -610 -867 28 -74 rlineto
          525 hlineto
          -49 -348 rlineto
          156.02000427246094 hlineto
          46.99000549316406 348 rlineto
          265.00999450683594 hlineto
          92 callsubr
          134 rlineto
          endchar
        </CharString>
        <CharString name="fraction">
          -84 163 callsubr
          157.97999572753906 804 vstem
          838.9799957275391 1530 26 callgsubr
          endchar
        </CharString>
        <CharString name="franc">
          60 459.97999572753906 259.00999450683594 120.010009765625 574.4799957275391 hstem
          13.979995727539062 1154 vstem
          238.97999572753906 338.97999572753906 rmoveto
          -225 hlineto
          14.009994506835938 121 rlineto
          226 hlineto
          135 1070.020004272461 rlineto
          779 hlineto
          -11 -120.00999450683594 -632.0200042724609 7 109 callgsubr
          -582 508.00999450683594 8 -10.020004272460938 -130 -512 12 -34 -265.00999450683594 rlineto
          270.99000549316406 hlineto
          -28 callgsubr
          -121 rlineto
          -272 hlineto
          -43 -338.97999572753906 176 callgsubr
          44 callsubr
          338.97999572753906 rlineto
          endchar
        </CharString>
        <CharString name="g">
          39 -504.99000549316406 -84 callsubr
          376.00999450683594 -80 callgsubr
          150 callsubr
          938.9900054931641 1119.990005493164 rmoveto
          19.009994506835938 -63 -88 17 -69 hhcurveto
          -103 callsubr
          -151 -762 -94 callgsubr
        </CharString>
        <CharString name="gbreve">
          39 -504.99000549316406 -84 callsubr
          376.00999450683594 -80 callgsubr
          152 -38 callsubr
          -8 callsubr
          186.99998474121094 104 426 99 vstem
          715.9799957275391 1308 rmoveto
          117 callgsubr
          16 hvcurveto
          2 265 callsubr
          -39 callgsubr
          rrcurveto
          -101 hlineto
          -10 callgsubr
          -15 47 callsubr
          95 -11 hvcurveto
          -2 10 -1 12 -40 callgsubr
          vvcurveto
          -103 hlineto
          -1 -6 0 -63 callgsubr
          -6 vvcurveto
          137 callgsubr
          208 vhcurveto
          223 -188 rmoveto
          19.009994506835938 -63 -88 17 -69 hhcurveto
          -103 callsubr
          -151 -762 -94 callgsubr
        </CharString>
        <CharString name="gcaron">
          39 -504.99000549316406 -84 callsubr
          376.00999450683594 -80 callgsubr
          131.989990234375 116 150 callsubr
          806.9900054931641 235 callsubr
          335 328 -8 callgsubr
          -72 callsubr
          -72 callsubr
          169 callgsubr
          -328 197 callgsubr
          -88 -132 rmoveto
          -103 callsubr
          189 callsubr
          69 -798 -94 callgsubr
        </CharString>
        <CharString name="gcircumflex">
          39 -504.99000549316406 -84 callsubr
          376.00999450683594 -80 callgsubr
          150 callsubr
          792.9900054931641 1573.990005493164 rmoveto
          -69 callsubr
          58.99000549316406 -59 333 127 callsubr
          rlineto
          -74 -418 rmoveto
          -103 callsubr
          189 callsubr
          69 -798 -94 callgsubr
        </CharString>
        <CharString name="gcommaaccent">
          39 -504.99000549316406 -84 callsubr
          376.00999450683594 -80 callgsubr
          -8 callsubr
          331.00999450683594 252 callgsubr
          vstem
          697 1252.990005493164 rmoveto
          94 92 5 40 -53 12 -36 65 -87 callgsubr
          59 rlinecurve
          4.0099945068359375 93 48 56 56 33 2 141 callsubr
          rcurveline
          -61 -52 callgsubr
          -78 -18 157 callgsubr
          -110 -5 -161.02000427246094 rlinecurve
          -2 -97 51 -105 84.00999450683594 -18 rrcurveto
          169 callgsubr
          -133 rmoveto
          19.009994506835938 -63 -88 17 -69 hhcurveto
          -103 callsubr
          -151 -762 -94 callgsubr
        </CharString>
        <CharString name="gdotaccent">
          39 -504.99000549316406 -84 callsubr
          376.00999450683594 -80 callgsubr
          273 213.99000549316406 -8 callsubr
          405.00999450683594 30 callgsubr
          723.9900054931641 144 callgsubr
          rmoveto
          129 callsubr
          -56 -52 -49.99000549316406 220 callgsubr
          215 -309 rmoveto
          19.009994506835938 -63 -88 17 -69 hhcurveto
          -103 callsubr
          -151 -762 -94 callgsubr
        </CharString>
        <CharString name="germandbls">
          70 -89 callsubr
          116.97999572753906 1378.990005493164 61 callsubr
          hstemhm
          257 callsubr
          143.99000549316406 93.99998474121094 156.99000549316406 -138.97999572753906 154 hintmask 11101000
          209 callgsubr
          928.9900054931641 rmoveto
          -117 -926 rlineto
          147.99000549316406 hlineto
          110.02000427246094 881 rlineto
          496.99000549316406 -79 callgsubr
          149 99 177 hhcurveto
          143 55 -89 173 callgsubr
          -125.00999450683594 254 callsubr
          62 callgsubr
          -93.97999572753906 45 callgsubr
          hvcurveto
          143 callgsubr
          -54.99000549316406 -38.99000549316406 -47 -85.02000427246094 vvcurveto
          -81 81 -100 60 109 callgsubr
          vhcurveto
          hintmask 11110000
          44 callsubr
          -60 54 54 callgsubr
          -99 vvcurveto
          -146 -86 -54 -163 vhcurveto
          -100 -1 -10 callgsubr
          109 callsubr
          -34 190 callgsubr
          -56 callsubr
          -144 rcurveline
          -25 44 107 -27.970001220703125 99 hhcurveto
          242 152 127.97000122070312 196.02000427246094 143 -68 100 -57 -61 callgsubr
          hvcurveto
          -62 82 -64 56.02000427246094 57 vvcurveto
          hintmask 11101000
          132 266.02000427246094 79.00999450683594 266 vvcurveto
          186 -127.02000427246094 101 -182.99000549316406 -212 -286 -59 -600 -77.99000549316406 vhcurveto
          endchar
        </CharString>
        <CharString name="grave">
          -569 1248.990005493164 226 callgsubr
          hstem
          71.99000549316406 409 vstem
          71.99000549316406 1596.990005493164 rmoveto
          58 -99 190.02000427246094 -183.99000549316406 96 callgsubr
          -65 65 50 callgsubr
          229 callgsubr
          endchar
        </CharString>
        <CharString name="grave.cap">
          -588 1600.979995727539 399.00999450683594 hstem
          51.99000549316406 366.97999572753906 vstem
          52 103 callsubr
          210 callgsubr
          -97.00999450683594 rlineto
          endchar
        </CharString>
        <CharString name="greater">
          258 178.99000549316406 1147.979995727539 hstem
          249.99000549316406 1022.9900054931641 vstem
          1260.990005493164 703 rmoveto
          12 98 -888.0200042724609 525.9900054931641 -13 callsubr
          -134.99000549316406 732 -432 -833 -432 -5 callsubr
          258 callsubr
          1011 524 rlineto
          endchar
        </CharString>
        <CharString name="greaterequal">
          258 -84 callsubr
          211 callsubr
          hstem
          140.97999572753906 1069.990005493164 vstem
          1203 698.9799957275391 rmoveto
          -1006 -453 18.990005493164062 149 777.0099945068359 338.99000549316406 -688 333 19 137 886.9900054931641 -446.00999450683594 141 callgsubr
          -59 rlineto
          -114.02000427246094 -699.9799957275391 rmoveto
          -948 hlineto
          15.020004272460938 -82 callsubr
          rlineto
          948 hlineto
          -15.009994506835938 -113.99000549316406 rlineto
          endchar
        </CharString>
        <CharString name="gtilde">
          39 -504.99000549316406 -84 callsubr
          376.00999450683594 -80 callgsubr
          226 124 20.989990234375 123 245 callsubr
          hintmask 11110100
          564.9799957275391 247 callgsubr
          190 callsubr
          21 -142.99000549316406 155 hhcurveto
          205 callsubr
          111 91 callgsubr
          33.02000427246094 82 callsubr
          hintmask 11111100
          118 callsubr
          88 callsubr
          174 callsubr
          -83 -83 -42 hvcurveto
          68 78 callgsubr
          rlineto
          hintmask 11110100
          44 callsubr
          37 -56 callgsubr
          65 75 hhcurveto
          154 -371 rmoveto
          -103 callsubr
          189 callsubr
          69 -798 -94 callgsubr
        </CharString>
        <CharString name="guillemotleft">
          768 117 callsubr
          248.99000549316406 1415.979995727539 vstem
          264.99000549316406 196 callgsubr
          52.97999572753906 124 callsubr
          676 hmoveto
          -16 -120 582.9900054931641 -399.00999450683594 53 85.00999450683594 -452 377 555.9900054931641 383 -29 89 -694.9900054931641 -415 rlineto
          endchar
        </CharString>
        <CharString name="guillemotright">
          768 117 callsubr
          225.99000549316406 1415.979995727539 vstem
          949.9900054931641 566.9900054931641 rmoveto
          16 120 -582.9900054931641 399.00999450683594 -53 191 callsubr
          452 -377 -555.9900054931641 -383 29 -89 694.9900054931641 415 rlineto
          676 hmoveto
          16 120 -583 399.00999450683594 -52.97999572753906 191 callsubr
          452 149 callgsubr
        </CharString>
        <CharString name="guilsinglleft">
          80 117 callsubr
          236.99000549316406 740 vstem
          252.99000549316406 196 callgsubr
          227 callsubr
          124 callsubr
          endchar
        </CharString>
        <CharString name="guilsinglright">
          80 117 callsubr
          192.97999572753906 740 vstem
          916.9900054931641 566.9900054931641 rmoveto
          16 120 -583 399.00999450683594 -53 191 callsubr
          452.00999450683594 149 callgsubr
        </CharString>
        <CharString name="h">
          7 callsubr
          50 callgsubr
          479 -68 callsubr
        </CharString>
        <CharString name="hbar">
          88 13 callgsubr
          135.99998474121094 100 hstemhm
          792.9799957275391 149 -30.989990234375 -29 callsubr
          hintmask 11010000
          832 120 callgsubr
          -173.02000427246094 -183.99000549316406 -134 -152 -118 hvcurveto
          44 287.99000549316406 92 callsubr
          134 rlineto
          127 callsubr
          hlineto
          157 callsubr
          100 rlineto
          -299.99000549316406 hlineto
          28 245 rlineto
          60 callsubr
          hlineto
          -32 -245 rlineto
          -130 hlineto
          -12.990005493164062 -100 rlineto
          130.99000549316406 hlineto
          -167 -1291.979995727539 rlineto
          147.99000549316406 hlineto
          98.02000427246094 721 rlineto
          151 108 127 callgsubr
          146 131 hhcurveto
          104 35 -47 -109.02000427246094 -76.99000549316406 -12 callsubr
          -132.02000427246094 -20.990005493164062 -140.97999572753906 hvcurveto
          hintmask 11100000
          -17 -116.02000427246094 -43 -268.97999572753906 -17 -127 rrcurveto
          149 hlineto
          18.990005493164062 122 callgsubr
          43 271 16 117 rrcurveto
          hintmask 11010000
          22 147 19 139 1 71 rrcurveto
          192 1 -81 callgsubr
          94 -163.97999572753906 hhcurveto
          endchar
        </CharString>
        <CharString name="hcircumflex">
          7 callsubr
          33 290.02000427246094 50 callgsubr
          -55 330.02000427246094 270.00999450683594 218.99000549316406 -265.00999450683594 240 callsubr
          -136 hlineto
          -334.99000549316406 -340.99000549316406 -11 callgsubr
          179 -68 callsubr
        </CharString>
        <CharString name="hungarumlaut">
          -192 1249.990005493164 455.97999572753906 hstem
          93 callsubr
          783.0099945068359 vstem
          93 callsubr
          1291.979995727539 rmoveto
          72.00999450683594 79 callsubr
          62 callsubr
          159 callsubr
          133.02000427246094 180.02000427246094 -24 callsubr
          215 callgsubr
          425 hmoveto
          -76 callgsubr
          79 callsubr
          81.02000427246094 59 -87 callsubr
          201 109 callsubr
          107 rlinecurve
          -110.02000427246094 62 callsubr
          -248 -414 rlineto
          endchar
        </CharString>
        <CharString name="hungarumlaut.cap">
          -188 1568.990005493164 426.97999572753906 hstem
          249 callsubr
          828 vstem
          471.97999572753906 238 callsubr
          57.02000427246094 -38 callgsubr
          110 64 127 callgsubr
          165 58 106 rlinecurve
          -103 -23 callgsubr
          -312.00999450683594 -374.99000549316406 rlineto
          -413 -2 rmoveto
          72.00999450683594 -80 callsubr
          106 76 181 151 -24 callsubr
          109 rlinecurve
          39 callgsubr
          89 -312.02000427246094 -375.00999450683594 rlineto
          endchar
        </CharString>
        <CharString name="hyphen">
          17 callsubr
        </CharString>
</ttFont>
